<?xml version="1.0" encoding="UTF-8"?>
<svg id="Layer_1" data-name="Layer 1" xmlns="http://www.w3.org/2000/svg" xmlns:xlink="http://www.w3.org/1999/xlink" viewBox="0 0 3238.32 2000.71">
  <defs>
    <style>
      .cls-1 {
        fill: #b8f2ff;
      }

      .cls-1, .cls-2, .cls-3, .cls-4, .cls-5, .cls-6, .cls-7, .cls-8, .cls-9, .cls-10, .cls-11, .cls-12, .cls-13, .cls-14, .cls-15, .cls-16, .cls-17 {
        stroke-width: 0px;
      }

      .cls-18 {
        clip-path: url(#clippath);
      }

      .cls-2 {
        fill: none;
      }

      .cls-3 {
        fill: #017367;
      }

      .cls-4 {
        fill: #f2dac9;
      }

      .cls-5 {
        fill: #ffa05c;
      }

      .cls-6 {
        fill: #e8c6ae;
      }

      .cls-7 {
        fill: #244649;
      }

      .cls-8 {
        fill: #48ab6a;
      }

      .cls-9 {
        fill: #9de5f5;
      }

      .cls-10 {
        fill: #065f6b;
      }

      .cls-11 {
        fill: #008d6e;
      }

      .cls-12 {
        fill: #1b3206;
      }

      .cls-13 {
        fill: #5ab56f;
      }

      .cls-14 {
        fill: #a9cf74;
      }

      .cls-15 {
        fill: #84c466;
      }

      .cls-16 {
        fill: #fff;
      }

      .cls-17 {
        fill: #fcf1dd;
      }
    </style>
    <clipPath id="clippath">
      <rect id="BAckground" class="cls-2" x="229.26" y="38.73" width="2800" height="1900"/>
    </clipPath>
  </defs>
  <g class="cls-18">
    <rect id="BAckground-2" data-name="BAckground" class="cls-1" x="229.26" y="38.73" width="2800" height="1900"/>
    <g>
      <polygon class="cls-9" points="953.43 1213.54 742.49 1213.54 742.49 609.71 953.43 499.58 953.43 1213.54"/>
      <polygon class="cls-9" points="2692.75 1213.54 2536.93 1213.54 2536.93 660.01 2692.75 578.65 2692.75 1213.54"/>
      <rect class="cls-9" x="929.75" y="824.86" width="200.49" height="385.79"/>
      <rect class="cls-9" x="2656" y="824.86" width="200.49" height="385.79"/>
      <rect class="cls-9" x="446.25" y="951.03" width="244.55" height="259.62"/>
      <rect class="cls-9" x="1759.73" y="972.54" width="210.53" height="238.11"/>
      <rect class="cls-9" x="644.94" y="748.52" width="153.04" height="462.13"/>
      <rect class="cls-9" x="1300.27" y="985.29" width="171.86" height="225.36"/>
      <rect class="cls-9" x="1531.07" y="924.99" width="171.86" height="285.66"/>
      <rect class="cls-9" x="2061.24" y="794.01" width="128.23" height="416.64"/>
      <rect class="cls-9" x="2145.09" y="924.99" width="330.21" height="285.66"/>
      <rect class="cls-9" x="2440.81" y="776.18" width="147.53" height="434.47"/>
      <polygon class="cls-9" points="1794.54 1210.65 1618.33 1210.65 1618.33 581.3 1794.54 669.51 1794.54 1210.65"/>
      <rect class="cls-9" x="1413.24" y="776.18" width="125.39" height="434.47"/>
      <rect class="cls-9" x="342.86" y="711.35" width="180.74" height="502.19"/>
      <g>
        <rect class="cls-9" x="1116.21" y="686.61" width="200.49" height="524.04"/>
        <polygon class="cls-9" points="1273.36 635.37 1159.56 635.37 1159.56 619.99 1216.46 588.11 1273.36 619.99 1273.36 635.37"/>
        <rect class="cls-9" x="1144.82" y="631.99" width="143.27" height="66"/>
      </g>
      <g>
        <rect class="cls-9" x="2761.42" y="686.61" width="200.49" height="524.04"/>
        <polygon class="cls-9" points="2930.9 767.88 2792.43 767.88 2792.43 635.57 2861.67 596.78 2930.9 635.57 2930.9 767.88"/>
      </g>
      <g>
        <rect class="cls-9" x="1903.85" y="614.03" width="200.49" height="596.62"/>
        <polygon class="cls-9" points="2060.99 562.78 1947.19 562.78 1947.19 547.4 2004.09 515.52 2060.99 547.4 2060.99 562.78"/>
        <rect class="cls-9" x="1932.46" y="559.4" width="143.27" height="66"/>
      </g>
    </g>
    <g>
      <path class="cls-16" d="M566.67,231.92c8.38-1.05,18.12-2.23,28.75-3.49-.1-1.44-.16-2.89-.16-4.36,0-33.67,27.29-60.96,60.96-60.96,12.45,0,24.04,3.73,33.69,10.15,14.12-34.64,48.14-59.05,87.85-59.05,32.34,0,60.9,16.18,78.02,40.89,10.82-7.62,24.01-12.09,38.24-12.09,32.21,0,59.07,22.88,65.21,53.27,19.47,2.53,35.19,16.97,39.64,35.75,11.67,1.59,22.09,3.06,30.55,4.33,14.5,2.17,16.68,7.64-13.54,8.75-22.45.82-42.57.61-123.41.57-61.7-.03-114.2.2-141.46.2-89.41.01-131.62-.71-158.67-1.88-40.58-1.76-43.42-9.84-25.65-12.09Z"/>
      <path class="cls-16" d="M1500.02,359.87c-6.59-.83-14.24-1.75-22.59-2.74.08-1.13.13-2.27.13-3.43,0-26.46-21.45-47.91-47.91-47.91-9.79,0-18.89,2.93-26.47,7.98-11.1-27.22-37.83-46.41-69.04-46.41-25.42,0-47.86,12.72-61.31,32.14-8.5-5.99-18.87-9.5-30.05-9.5-25.31,0-46.42,17.98-51.25,41.87-15.3,1.99-27.65,13.34-31.15,28.1-9.17,1.25-17.36,2.4-24.01,3.4-11.4,1.71-13.11,6.01,10.64,6.88,17.64.65,33.45.48,96.99.45,48.49-.02,89.75.15,111.17.16,70.27,0,103.44-.56,124.7-1.48,31.89-1.38,34.13-7.74,20.16-9.5Z"/>
      <path class="cls-16" d="M2963.66,303.43c.38-2.03.58-4.12.58-6.26,0-18.57-15.06-33.63-33.63-33.63-2.54,0-5.01.28-7.39.82-9.87-20.23-30.63-34.15-54.64-34.15-8.41,0-16.42,1.7-23.7,4.8-12.54-22.47-36.54-37.67-64.11-37.67-24.72,0-46.59,12.23-59.87,30.97-6.13-2.96-13.01-4.62-20.27-4.62-18.86,0-35.1,11.18-42.48,27.26,0,0,0,0-.01,0-5.01-1.33-10.27-2.03-15.7-2.03-32.97,0-59.87,26-61.3,58.62-35.14,4.74-36.38,10.66.47,10.79,32.48.11,75.3.02,121.67-.2,7.07-.04,14.23-.08,21.44-.11,29.28-.17,59.51-.39,89.11-.65,7.96-.07,15.88-.15,23.72-.22,22.73-.22,44.81-.47,65.47-.73,7.14-.09,14.11-.18,20.88-.28,12.35-.17,24.03-.35,34.85-.54,47.22-.8,44.07-7.62,4.91-12.17Z"/>
    </g>
    <rect class="cls-4" x="229.26" y="1532.65" width="2800" height="373.44"/>
    <g>
      <path class="cls-11" d="M909.01,1230.86c.03-3.87-.06-7.75-.46-11.6-.75-7.18-2.45-14.31-6.16-20.57-6.57-11.1-19.07-18.23-31.94-18.48-3.66-.07-7.28.46-10.75,1.49,1.2-1.39,2.41-2.77,3.6-4.15,4.62-5.39,13.95-16.74,4.03-22.31-9.03-5.07-16.84,7.26-20.43,13.73-.55.99-1.07,1.99-1.56,3.01-3.89-12.41-10.39-23.93-20.08-32.8-13.41-12.26-32.65-18.67-50.49-14.85,1.59-1.21,3.04-2.57,4.17-4.22,2.19-3.19,3.41-8.55,0-11.39-2.89-2.41-8.34-1.65-11.67-.77-4,1.06-7.63,2.87-11.12,5.05-1.22.76-2.39,1.59-3.54,2.47.25-2.71.4-5.43.37-8.17-.06-4.31-.43-8.61-1.2-12.85-.74-4.05-1.59-8.51-3.43-12.23-1.7-3.43-4.47-6.2-8.36-6.87-3.76-.65-7.53,1.16-9.17,4.64-1.74,3.69-.88,8.41-.49,12.31.42,4.28,1.05,8.54,1.86,12.76.95,4.93,2.17,9.8,3.63,14.61-9.76-15.07-21.3-28.98-37.39-37.52-1.49-.79-2.98-1.5-4.48-2.14,4.82-5.62,9.19-11.85,11.48-18.73,1.42-4.29,2.07-9.46.51-13.8-1.66-4.62-5.91-7.63-10.89-6.31-4.55,1.2-8.47,5.3-11.35,8.83-3.14,3.84-5.68,8.07-8.05,12.42-2.17,3.97-4.12,8.06-5.97,12.19-.94-.06-1.88-.11-2.83-.15-.52-2.86-1.03-5.73-1.62-8.58-.79-3.83-1.62-7.76-4.11-10.89-2.69-3.39-7.57-5.33-11.55-2.94-4.03,2.42-4.01,7.8-3.77,11.92.23,3.84.93,7.62,2.03,11.31-7.78,1.25-15.24,3.76-22.23,7.96-7.66,4.6-14.31,10.59-20.06,17.37-5.44-48.94-40.59-80.48-79.83-73.41-28.48,5.13-45.59,26.23-54.43,41.35,3.62-8.51,6.97-17.13,9.96-25.87,3.47-10.12,8.65-22.11,5.22-32.89-1.62-5.09-5.78-8.25-11.22-6.85-5.09,1.32-9.29,5.78-12.25,9.92-6.49,9.08-8.75,20.54-9.78,31.44-.63,6.73-.93,13.54-.39,20.25-14.53-21.07-45.24-50.18-101.4-42.25-37.79,5.34-58.01,31.86-68.81,59.87,1.36-10.2,1.81-20.89.05-31.01-.81-4.66-2.85-11.97-8.52-12.54-5.84-.58-8.98,5.44-11.02,9.95-4.68,10.39-6.23,22.04-6.8,33.33-.23,4.54-.15,9.08.07,13.62-2.17-2.84-4.52-5.53-7.14-7.96-3.54-3.28-7.75-6.7-12.36-8.31-5.25-1.83-10.69.43-12.41,5.88-1.78,5.65.02,11.04,3.3,15.59-14-3.79-28.82-3.88-43.37,1.42-17.24,6.28-29.76,18.97-37.17,35.63-7.13,16.01-10,33.85-8.59,51.3,1.6,19.78,8.26,39,19.91,55.13,1.64,2.27,4.35,2.4,6.32,1.4l644.8.05c.39.32.9.57,1.53.69,16.88,3.4,34.34,1.49,51.39.67,8.79-.43,17.57-.85,26.36-1.28,4.04-.2,8.08-.36,12.11-.59,3.27-.18,6.5-.66,7.52-4.34.83-3.01.41-6.81.43-9.92Z"/>
      <path class="cls-11" d="M3098.05,1180.17c-2.79-16.8-13.93-30.21-28.17-39.02-21.66-13.41-48.53-13.65-70.32-2.41,5.79-5.8,11.58-11.6,17.37-17.4,3.37-3.38,8.42-7.11,8.57-12.35.12-4.44-3.34-7.77-7.73-7.8-9.05-.05-16.35,9.08-20.72,15.95-1.93,3.05-3.76,6.17-5.52,9.34.44-5.88.54-11.78.16-17.68-1.2-18.56-7.69-37.48-20.12-51.06.22-.31.43-.62.64-.93,2.89-3.08,5.94-6.03,7.75-10.08,2.11-4.72,4.65-12.58-.34-16.44-5.55-4.3-11.27,1.21-12.9,6.5-.21.68-.4,1.36-.57,2.05-.68-3.62-1.68-7.19-3-10.64-2.28-5.98-7.42-19.97-16.19-16.67-9.35,3.52-1.45,17.71,1.66,22.79,2.19,3.57,4.62,7.14,6.69,10.87-1.44-.76-2.93-1.47-4.47-2.11-26.18-10.97-55.27-3.34-76.08,14.82-7.14-7.91-16.17-14.1-26-18.4-14.8-6.47-31.03-9.15-47.19-8.52,1.94-3.46,3.34-7.24,4.25-11.14,1.26-5.36,4.41-16.3-1.72-19.76-7.11-4.01-12.09,4.28-14.24,9.74-.97,2.47-1.7,5-2.27,7.57-.61-.76-1.25-1.49-1.94-2.18-5.14-5.19-14.85-9.35-20.26-2.1-5.62,7.54,2.88,15.36,9.18,18.58,1.59.81,3.3,1.51,5.04,2.2-9.84,2.23-19.39,5.64-28.27,10.19-28.81,14.73-50,43.09-53.29,75.39-5.47-6.86-11.45-13.29-18.46-18.61-10.81-8.21-23.59-12.87-37.22-12.73-13.35.13-26.72,4.52-37.74,12.03-15.84,10.8-26.08,27.35-31.18,45.48,0-3.37-.03-6.74-.13-10.1-.22-7.06-.5-15.69-3.78-22.12-2.86-5.61-10.26-5.65-12.02.83-.96,3.54-.59,7.62-.54,11.25.02,2.04.09,4.08.19,6.12-.38-.19-.77-.36-1.18-.48-4.24-1.25-5.92,4.01-5.73,7.26.24,3.92,2.35,7.26,4.84,10.17,2.25,2.64,4.66,5.15,7.05,7.67-8.42-3.92-18.05-5.38-27.06-3.6-10.92,2.16-20.16,9.5-24.41,19.77-1.05-3.35-2.39-6.65-3.88-9.91-1.92-4.2-3.94-8.86-8.19-11.2-3.54-1.94-7.78-1.66-10.86,1-8.1,7-1.71,17.07,3.95,23.08,3.68,3.9,7.04,8.01,10.1,12.34-4.34-2.53-8.95-4.38-12.66-5.42-22.49-6.32-44.89,5.36-58.27,23.3-15.4,20.65-17.79,47.62-16.92,72.55.01.39.08.75.19,1.08.01.14.02.28.04.42.03.18.05.26.06.3,0,.03,0,.11,0,.27.02.32.04.65.05.97,0,.32,0,.65,0,.97,0,0-.03.34-.05.56-1.14,2.19-.07,5.56,3.14,5.5,47.4-.89,94.79-2.08,142.18-3.31,84.09-2.18,168.17-4.48,252.29-5.32,84.31-.85,168.65-.22,252.9,3.4,2.84.12,3.92-2.48,3.31-4.62,12.24-13.83,21.27-30.24,26.4-47.98,4.65-16.07,6.33-33.66,3.58-50.23Z"/>
      <path class="cls-11" d="M2499.59,1149.49c-9.53-6.8-21.43-10.52-32.7-7.74-.61.15-1.2.38-1.8.56,1.58-2.39,3.16-4.78,4.5-7.28,1.64-3.06,3.08-6.34,3.82-9.74.76-3.51,1.25-7.65-.67-10.88-1.7-2.84-5.11-4.37-8.33-4.43-3.44-.06-6.55,1.62-9.01,3.91-4.76,4.42-7.99,11.02-10.07,17.08-.64,1.88-1.15,3.78-1.54,5.7-5.98-12.17-14.62-22.59-25.93-29.48-12.05-7.34-25.68-10.67-39.37-8.72-8.48,1.21-16.33,4.75-23.18,10.03.26-.45.52-.9.77-1.35,2.64-4.59,6.04-9.55,5.5-15.11-.25-2.56-1.31-5.17-3.82-6.24-2.62-1.11-5.25.04-7.02,2.03-.14-2.98-.34-6.03-1.12-8.85-.96-3.46-3.15-6.87-6.87-7.71-4.65-1.05-7.39,3.02-8.7,6.84-1.3,3.77-1.41,7.97-1.45,11.93-.04,3.93.17,7.85.61,11.76.15,1.35.37,2.69.58,4.03-7.79-13.53-18.41-24.91-31.54-32.44,2.48-1.86,4.91-3.79,7.27-5.8,4.4-3.74,9.65-7.87,11.39-13.63.87-2.89.74-6.51-1.41-8.84-2.38-2.58-6.12-2.22-9.26-1.64-5.5,1.02-10.69,4.42-14.25,8.68-.75.89-1.42,1.83-2.06,2.78-.11-.47-.19-.95-.32-1.42-.83-3.12-1.94-6.15-3.25-9.1-1.15-2.58-3.06-5.12-5.83-6.06-2.99-1.02-6.22.11-8.01,2.69-1.54,2.21-1.84,5.05-1.59,7.67.56,5.84,2.52,11.29,5.25,16.45-10.3-1.95-20.99-1.52-30.89,1.83-16.49,5.58-30.08,17.57-40.62,32.55-6.48,9.21-11.61,19.4-16.04,30,.68-14.84,2.7-30.39-3.86-43.89-1.72-3.53-5.25-6.38-9.35-5.18-4.24,1.23-5.32,5.71-5.77,9.54-1.04,8.95.09,18.14,2.62,26.76,1,3.43,2.24,6.79,3.64,10.08-8.72-11.18-19.87-19.77-33.16-23.46-12.67-3.52-25.75-2.96-37.99,2.22-12.77,5.41-22.36,16.42-28.63,29.68-4.2,8.88-6.77,18.53-8.67,28.35-6.27-4.55-13.47-7.48-20.92-8.81.67-1.84,1.3-3.7,1.85-5.58,1.54-5.28,2.54-11.15.43-16.42-1.21-3-3.31-5.42-6.82-5.16-2.82.21-5.12,2.48-6.95,4.44-1.42,1.52-2.64,3.21-3.75,4.96-.84-2.27-1.65-4.55-2.67-6.74-2.38-5.13-7.22-11.77-13.66-10.96-6.84.86-7.77,8.37-6.8,13.87,1.02,5.79,3.19,11.46,6.12,16.55,1.51,2.62,3.28,5.1,5.21,7.43-1.4.53-2.79,1.09-4.14,1.75-22.17,10.77-29.7,38.41-27.14,64.45,10.38,105.54,92.47,86.94,116.46,88.87,25.67,2.07,66.49,2.08,92.21,1.98,25.8-.11,51.61-.34,77.41-.66,51.72-.64,103.46-1.94,155.09-5.59,12.83-.91,25.66-1.96,38.47-3.19,6.32-.61,12.65-1.26,18.96-1.95,7.1-.78,13.24-2.49,18.11-8.71,3.82-4.87,6.12-11.58,8.3-17.51,2.25-6.13,4.12-12.43,5.59-18.84,3.05-13.28,4.78-26.87,4.56-40.6-.4-25.63-7.3-53.13-27.8-67.74Z"/>
    </g>
    <rect class="cls-14" x="229.26" y="1212.41" width="2800" height="309.3"/>
    <rect class="cls-14" x="229.26" y="1806.75" width="2800" height="131.98"/>
    <rect class="cls-13" x="229.26" y="1500.02" width="2800" height="38.81"/>
    <g>
      <g>
        <path class="cls-10" d="M1294.35,1311.97h93.39s-3.21-35.64-35.64-35.64-57.74,35.64-57.74,35.64Z"/>
        <path class="cls-10" d="M1311.46,1311.97h-49.9s6.55-17.82,23.88-17.82c17.33,0,26.02,17.82,26.02,17.82Z"/>
      </g>
      <path class="cls-10" d="M2156.47,1454.45h-58.34s2-22.27,22.27-22.27c20.26,0,36.07,22.27,36.07,22.27Z"/>
      <path class="cls-10" d="M509.01,1258.51h-75.78s9.95-27.06,36.27-27.06c26.32,0,39.51,27.06,39.51,27.06Z"/>
      <path class="cls-10" d="M576.25,1310.45h-39.76s5.98-13.06,21.94-13.06c15.95,0,17.82,13.06,17.82,13.06Z"/>
    </g>
    <g>
      <ellipse class="cls-15" cx="1752.48" cy="1353.67" rx="32.5" ry="11.05"/>
      <ellipse class="cls-15" cx="1832.56" cy="1307.4" rx="14.97" ry="5.56"/>
      <ellipse class="cls-15" cx="1486.1" cy="1241.69" rx="16.04" ry="6.51"/>
      <ellipse class="cls-15" cx="296.02" cy="1241.69" rx="14.19" ry="5.53"/>
      <ellipse class="cls-15" cx="438.35" cy="1462.68" rx="23.26" ry="10.69"/>
      <ellipse class="cls-15" cx="511.67" cy="1427.64" rx="11.92" ry="5.37"/>
      <ellipse class="cls-15" cx="1030.63" cy="1330.14" rx="28.94" ry="13.54"/>
      <ellipse class="cls-15" cx="1395.22" cy="1449.76" rx="31.01" ry="9.27"/>
      <ellipse class="cls-15" cx="1318.23" cy="1408.95" rx="10.69" ry="3.74"/>
      <ellipse class="cls-15" cx="595.13" cy="1444.33" rx="10.69" ry="3.74"/>
      <ellipse class="cls-15" cx="1144.22" cy="1248.27" rx="14.44" ry="6.58"/>
      <ellipse class="cls-15" cx="2373.22" cy="1435.56" rx="22.25" ry="7.75"/>
      <ellipse class="cls-15" cx="2061.15" cy="1234.21" rx="18.82" ry="5.53"/>
      <ellipse class="cls-15" cx="2756.25" cy="1463.45" rx="18.82" ry="5.53"/>
      <ellipse class="cls-15" cx="2458.85" cy="1392.16" rx="9.09" ry="4.81"/>
      <ellipse class="cls-15" cx="2875.71" cy="1305.81" rx="25.26" ry="8.6"/>
      <ellipse class="cls-15" cx="2929.91" cy="1254.79" rx="9.62" ry="5.56"/>
      <ellipse class="cls-15" cx="2703.02" cy="1237.4" rx="14.56" ry="5.9"/>
      <ellipse class="cls-15" cx="2962.11" cy="1433.12" rx="12.11" ry="4.61"/>
    </g>
    <g>
      <path class="cls-8" d="M2146.27,753.03c4.74-11.12,12.43-20.79,20.49-29.73,3.8-4.22,7.66-8.61,11.82-12.65-9.76-6.19-17.72-14.54-21.77-26.38-9.07-26.53,14.78-49.78,35.15-63.36,10.43-6.96,21.92-12.28,33.98-15.77-16.66-20.19-32.3-44.27-32.03-71.02.23-23.32,12.87-49.07,36.78-56.42,15.27-4.69,31.03-1.12,45.77,3.8,2.5-38.77,20.46-77.55,53.92-99.42,30.52-19.95,71.02-23.97,102.64-4.1,15.19,9.55,27.39,23.42,33.62,40.11,20.58-11.51,47.39-11,67.71,1.05,25.64,15.2,33.54,44.84,37.54,72.26,2.58,17.68,3.16,35.69-2.2,52.82,23.82-3.06,47.39,12.57,56.03,34.3,4.86,12.23,5.19,26.09,1.88,38.74-1.71,6.53-4.28,12.87-7.73,18.68-1.59,2.67-3.39,5.2-5.23,7.7-2.07,2.82-2.84,4.46.36,6.59,4.73,3.15,10.62,4.38,15.51,7.36,5.18,3.15,9.79,6.98,13.82,11.47,7.99,8.89,13.32,19.85,15.29,31.59,2.18,12.94-.18,27.29-8.36,37.85-8.05,10.39-21.14,17.34-33.22,22.11-17.28,6.81-37.3,9.38-55.23,4.7-.28,9.67-1.2,19.31-4.64,28.31-4.52,11.85-13.13,22.26-23.76,29.28-16.53,10.91-35.3,11.58-53.84,8.42.18,12.26-1.97,24.41-10.31,33.99-5.97,6.85-14.24,11.33-22.42,15.1-8.36,3.86-17.14,6.71-26.16,8.64-36.04,7.74-73.89-.25-103.41-22.13-10.87-8.06-20.26-17.8-27.98-28.74-13.68,6.71-28.9,10.3-44.21,10.19-9.85-.07-20.06-1.32-29.31-4.78-9.34-3.5-14.99-10.91-18.01-20.09-.48-1.47-.71-4.03-1.4-5.6-.71.04-1.42.07-2.13.09-.92.03-1.84.04-2.76.04-5.45,0-10.97-.4-16.31-1.52-9.47-1.98-18.5-6.2-24.94-13.49-12.1-13.69-11.78-33.98-4.96-49.97Z"/>
      <polygon class="cls-12" points="2400.69 606.49 2420.86 1338.59 2373.17 1338.59 2392.93 606.49 2400.69 606.49"/>
      <path class="cls-12" d="M2399.7,751.37s-98.63,7.38-115.5-72.7h-4.74s2.46,85,113.35,100.12l6.89-27.41Z"/>
      <path class="cls-12" d="M2397.01,687.45s77.47,25.8,95.04-113.73l2.96-.85s10.32,132.45-95,146.88l-3-32.3Z"/>
      <path class="cls-12" d="M2315.7,734.6s42.65-14.16,26.14-98.51l3.87-2.46s21.54,67.35-2.11,113.7l-27.89-12.73Z"/>
      <path class="cls-13" d="M2461.32,1311.76c-4.25-8.62-12.64-14.99-22.57-14-3.77.37-7.29,1.78-10.08,4.2-.48-1.43-.94-2.86-1.71-4.17-1.04-1.77-2.41-3.3-4-4.59-3.08-2.49-7.07-3.99-11.05-3.9-5.65.13-10.63,3.27-13.6,7.8-3.28-8.45-10.88-15.02-20.05-16.22-5.25-.69-10.84.45-15.4,3.16-4.86,2.88-8.23,7.45-10.26,12.66-1.91,4.9-2.63,10.17-3.08,15.4-6.54-4.68-15.29-6.89-22.46-2.1-7.9,5.28-8.15,15.95-4.07,23.74,2.57,4.92,6.55,8.92,10.58,12.67.21.2.44.33.67.42.28.23.66.37,1.12.38,33.15.59,66.3.85,99.45.77,8.66-.02,17.32-.07,25.98-.14.67.5,1.75.5,2.48-.06,1.56-.32,1.92-2.35.98-3.3,1.27-11,2.09-22.5-2.94-32.72Z"/>
    </g>
    <g>
      <ellipse class="cls-6" cx="1648" cy="1581.77" rx="55.91" ry="18.02"/>
      <ellipse class="cls-6" cx="1959.73" cy="1581.77" rx="21.29" ry="9.91"/>
      <ellipse class="cls-6" cx="1891.78" cy="1563.46" rx="12.06" ry="7.34"/>
      <ellipse class="cls-6" cx="269.44" cy="1578.61" rx="31.37" ry="11.9"/>
      <ellipse class="cls-6" cx="352.64" cy="1559.4" rx="12.83" ry="7.49"/>
      <ellipse class="cls-6" cx="2998.94" cy="1713.61" rx="16.57" ry="9.77"/>
      <ellipse class="cls-6" cx="2896.89" cy="1567.15" rx="35.22" ry="11.01"/>
    </g>
    <g>
      <g>
        <path class="cls-7" d="M906.37,1272.37c-3.37,9.65-6.62,19.32-9.75,29.05-3.01,9.33-5.9,18.71-8.68,28.11-2.56,8.67-5.03,17.36-7.37,26.09h0c-.31,1.16-.63,2.33-.93,3.49-5.34,20.11-10.07,40.4-13.93,60.85-3.01,16-5.68,32.22-6.99,48.51l-1.94-.19c.43-5.1,1-10.2,1.63-15.29,3.07-24.43,7.99-48.64,13.78-72.57.27-1.13.55-2.27.82-3.39.45-1.81.89-3.61,1.34-5.41,5.96-23.78,12.79-47.34,20.32-70.68,3.13-9.71,6.38-19.38,9.75-29.01.42-1.21,2.38-.76,1.96.45Z"/>
        <path class="cls-17" d="M953.42,1273.2c-5.96-10.22-22.27-28.43-27.11-26-.6.3-.96,1.07-1.1,2.19-.58-.46-1.13-.69-1.63-.64-1.45.14-2.73,1.86-3.82,4.54-.28-2.1-.89-3.47-1.83-3.82-.83-.31-1.97-.02-3.31.7.87-1.54,1.46-2.9,1.7-4.01,2.66-1.34,4.21-2.7,4.07-3.9-.6-5.38-24.76-9.13-36.58-8.56-9.26.45-17.82,3.45-18.17,10.37-.19,3.67,4.19,9.13,14.66,9.23,1.67.02,3.39-.03,5.14-.13-1.87,1.12-3.57,2.24-4.98,3.29-7.44,5.54-12.76,12.95-8.91,19.28,2.04,3.36,8.96,5.78,17.73.07,2.19-1.43,4.4-3.07,6.56-4.83-1.66,2.6-3.06,5.09-4.01,7.23-3.76,8.48-3.58,19.76,2.7,22.68,4.76,2.21,12.18-2.14,16.97-11.44,1.41-2.74,2.65-5.72,3.73-8.76-.08,2.2-.09,4.23-.02,5.96.36,9.27,3.58,17.95,10.88,18.67,4,.4,10.35-6.29,10.62-14.99.07-2.38-.03-4.9-.28-7.47.8,1.38,1.62,2.71,2.46,3.98,5.79,8.72,12.76,9.41,15.73,7.26,5.6-4.06,3.46-12.87-1.21-20.88Z"/>
        <path class="cls-5" d="M932.1,1254.2c-3.65,5.9-9.88,4.69-16.11.84s-10.1-8.88-6.46-14.78c3.65-5.9,11.66-7.57,17.89-3.72,6.23,3.85,8.32,11.76,4.68,17.66Z"/>
      </g>
      <g>
        <path class="cls-7" d="M779.41,1237.25c1.3,10.13,2.49,20.27,3.54,30.44,1.02,9.75,1.92,19.52,2.69,29.3.72,9.01,1.33,18.02,1.82,27.05h0c.07,1.2.13,2.41.19,3.61,1.07,20.78,1.51,41.61,1.07,62.41-.35,16.27-1.1,32.7-3.18,48.9l1.94.21c.63-5.08,1.13-10.19,1.56-15.29,2.04-24.54,2.23-49.24,1.5-73.85-.03-1.17-.07-2.33-.1-3.49-.06-1.86-.13-3.72-.2-5.57-.93-24.5-2.74-48.96-5.29-73.35-1.06-10.15-2.24-20.28-3.55-30.4-.16-1.28-2.17-1.24-2.01.04Z"/>
        <path class="cls-17" d="M740.55,1204.59c.52-.02,1.04-.02,1.57-.03-6.51-3.66-11.99-8.99-9.36-13.9,1.8-3.36,7.54-5.13,15.5-.85.46.25.92.5,1.37.76-3.81-6.42-5.89-13.78-1.16-16.72,3.24-2.01,9.09-.68,13.85,7.02.27.44.54.89.81,1.35-.09-7.46,1.79-14.88,7.36-15.06,3.82-.12,8.22,3.96,8.48,13,.02.52.02,1.04.03,1.57,3.66-6.51,8.99-11.99,13.9-9.36,3.36,1.8,5.13,7.54.85,15.5-.25.46-.5.92-.76,1.37,6.42-3.81,13.78-5.89,16.72-1.16,2.01,3.24.68,9.09-7.02,13.85-.44.27-.89.54-1.35.81,7.46-.09,14.88,1.79,15.06,7.36.12,3.82-3.96,8.22-13,8.48-.52.02-1.04.02-1.57.03,6.51,3.66,11.99,8.99,9.36,13.9-1.8,3.36-7.54,5.13-15.5.85-.46-.25-.92-.5-1.37-.76,3.81,6.42,5.89,13.78,1.16,16.72-3.24,2.01-9.09.68-13.85-7.02-.27-.44-.54-.89-.81-1.35.09,7.46-1.79,14.88-7.36,15.06-3.82.12-8.22-3.96-8.48-13-.02-.52-.02-1.04-.03-1.57-3.66,6.51-8.99,11.99-13.9,9.36-3.36-1.8-5.13-7.54-.85-15.5.25-.46.5-.92.76-1.37-6.42,3.81-13.78,5.89-16.72,1.16-2.01-3.24-.68-9.09,7.02-13.85.44-.27.89-.54,1.35-.81-7.46.09-14.88-1.79-15.06-7.36-.12-3.82,3.96-8.22,13-8.48Z"/>
        <circle class="cls-5" cx="772.43" cy="1211.55" r="11.64"/>
      </g>
      <g>
        <path class="cls-7" d="M659.37,1282.68c19.32,22.5,35.37,47.77,48.55,74.3,11.26,22.66,20.74,46.49,26.82,71.09,2.44,9.89,4.41,20.02,4.84,30.22.05,1.09-1.64,1.08-1.69,0-.37-8.94-1.98-17.81-4-26.51-2.58-11.11-5.95-22.03-9.81-32.76-9.38-26.09-21.65-51.22-36.35-74.72-8.86-14.16-18.66-27.74-29.55-40.41-.7-.82.48-2.03,1.19-1.2h0Z"/>
        <path class="cls-17" d="M614.99,1285c3.74-10.03,15.47-28.77,20.16-27.35.58.18,1.02.81,1.32,1.79.44-.5.9-.79,1.36-.83,1.32-.1,2.72,1.24,4.11,3.46-.07-1.91.26-3.23,1.04-3.68.7-.4,1.75-.32,3.05.11-1.02-1.24-1.75-2.36-2.13-3.31-2.57-.78-4.16-1.76-4.23-2.85-.29-4.89,20.66-11.95,31.29-13.26,8.33-1.03,16.41.33,17.79,6.44.73,3.24-2.33,8.78-11.65,10.49-1.49.27-3.03.5-4.61.67,1.84.71,3.52,1.44,4.94,2.16,7.49,3.79,13.37,9.57,10.91,15.81-1.3,3.31-7.09,6.53-15.8,2.79-2.18-.94-4.4-2.06-6.6-3.3,1.88,2.06,3.51,4.07,4.69,5.83,4.65,6.98,6.23,17.06,1.09,20.63-3.9,2.71-11.18-.03-16.89-7.58-1.68-2.23-3.25-4.69-4.67-7.24.41,1.95.73,3.75.94,5.31,1.11,8.32-.43,16.55-6.82,18.32-3.5.97-10.19-4.01-11.77-11.72-.43-2.11-.72-4.37-.9-6.7-.5,1.35-1.02,2.67-1.58,3.93-3.82,8.66-9.92,10.35-12.9,8.89-5.62-2.76-5.07-10.94-2.13-18.8Z"/>
        <path class="cls-5" d="M631.06,1264.79c4.16,4.7,9.52,2.66,14.48-1.74,4.96-4.39,7.64-9.47,3.48-14.17-4.16-4.7-11.55-4.95-16.51-.56-4.96,4.39-5.61,11.76-1.45,16.46Z"/>
      </g>
      <path class="cls-3" d="M898.93,1393.22c-14.57-5.79-26.18,6.46-33.04,15.12-1.95,2.47-3.78,5-5.5,7.57.91-12.19,1.46-24.4,1.64-36.62.15-10.42.13-20.86-.39-31.28-.42-8.31-1.37-16.89-4.95-24.74-3.38-7.41-9.25-15.14-18.32-18.63-8.61-3.31-17.66-.88-23.4,5.02-6.29,6.48-8.51,15.01-11.03,22.82-3.28,10.17-6.1,20.44-8.45,30.77-2.77,12.19-4.89,24.46-6.38,36.79-2.33-9.1-4.77-18.18-7.41-27.23-4.6-15.76-10-32.11-21.87-45.4-5.35-5.99-12.58-12.89-22.63-12.19-7.79.54-12.65,5.78-14.89,11.45-2.89,7.3-2.17,15.57-2.15,23.12.02,9.52.44,19.04,1.25,28.54.93,10.94,2.39,21.84,4.34,32.68-1.92-3.36-3.89-6.7-5.92-10.03-3.79-6.21-7.75-12.34-11.89-18.4-3.34-4.88-7.12-10.02-13.49-12.58-5.61-2.26-12.68-2.22-17.57,1.22-4.65,3.27-5.88,8.32-6.21,13.11-.83,12.32,1.34,25.09,5.2,36.98,4.53,13.95,23.78,45.7,27.69,45.88,64.98,2.9,130.08,3.75,195.15,2.56,3.44-.06,11.57-31.92,11.74-45.83.12-9.76,1.44-25.56-11.52-30.71Z"/>
    </g>
    <g>
      <g>
        <path class="cls-7" d="M2720,1253.5c-2.68,6.48-5.29,12.98-7.82,19.52-2.43,6.28-4.78,12.58-7.05,18.92-2.09,5.84-4.12,11.7-6.07,17.59h0c-.26.78-.52,1.57-.78,2.35-4.45,13.57-8.48,27.29-11.93,41.14-2.69,10.84-5.15,21.85-6.69,32.96l-1.32-.21c.5-3.48,1.08-6.95,1.72-10.41,3.06-16.62,7.38-33.01,12.28-49.18.23-.77.46-1.53.7-2.29.38-1.22.75-2.44,1.13-3.65,5.02-16.06,10.62-31.93,16.69-47.63,2.52-6.53,5.13-13.03,7.81-19.5.34-.82,1.66-.43,1.32.39Z"/>
        <path class="cls-17" d="M2752.2,1255.91c-3.69-7.24-14.14-20.35-17.56-18.88-.42.18-.7.7-.84,1.46-.38-.34-.75-.52-1.09-.51-1,.04-1.94,1.17-2.8,2.96-.11-1.45-.47-2.41-1.1-2.69-.56-.24-1.35-.09-2.29.35.66-1.02,1.11-1.93,1.32-2.68,1.87-.81,2.99-1.68,2.94-2.51-.2-3.71-16.6-7.22-24.73-7.29-6.37-.06-12.34,1.67-12.85,6.39-.27,2.5,2.52,6.42,9.68,6.9,1.14.08,2.33.11,3.53.11-1.33.7-2.53,1.39-3.54,2.06-5.32,3.5-9.25,8.37-6.86,12.86,1.27,2.38,5.91,4.31,12.15.74,1.56-.89,3.14-1.93,4.69-3.06-1.24,1.72-2.3,3.37-3.03,4.8-2.91,5.66-3.22,13.39.96,15.64,3.17,1.7,8.43-.99,12.08-7.17,1.07-1.82,2.04-3.81,2.9-5.86-.14,1.5-.23,2.89-.25,4.08-.12,6.36,1.75,12.44,6.72,13.22,2.72.43,7.34-3.91,7.86-9.85.14-1.63.17-3.36.1-5.13.49.98,1,1.92,1.53,2.82,3.63,6.2,8.37,6.95,10.49,5.59,4-2.56,2.88-8.68-.01-14.35Z"/>
        <path class="cls-5" d="M2738.34,1242.06c-2.73,3.9-6.95,2.82-11.07-.06-4.12-2.88-6.57-6.48-3.84-10.38,2.73-3.9,8.28-4.73,12.4-1.85,4.12,2.88,5.24,8.38,2.51,12.28Z"/>
      </g>
      <g>
        <path class="cls-7" d="M2601.25,1232.86c13.05,20.93,23.05,43.72,30.55,67.19,6.4,20.05,11.19,40.83,13.09,61.81.76,8.43,1.1,17.01.17,25.45-.1.9-1.49.68-1.39-.22.82-7.39.62-14.89.05-22.29-.72-9.46-2.12-18.86-3.93-28.16-4.42-22.63-11.35-44.82-20.47-65.99-5.5-12.76-11.85-25.15-19.2-36.94-.48-.76.65-1.61,1.13-.84h0Z"/>
        <path class="cls-17" d="M2565.84,1218.34c.37-.12.75-.24,1.13-.35-5.47-1.27-10.55-3.97-9.68-8.07.6-2.81,4.37-5.29,11.02-3.87.38.08.77.17,1.15.26-4.1-3.84-7.15-8.72-4.35-11.83,1.92-2.13,6.43-2.4,11.47,2.16.29.26.58.53.87.8-1.63-5.37-1.83-11.13,2.15-12.42,2.73-.89,6.77,1.13,8.86,7.61.12.37.24.75.35,1.13,1.27-5.47,3.98-10.55,8.07-9.68,2.81.6,5.29,4.37,3.87,11.02-.08.38-.17.77-.26,1.15,3.84-4.1,8.72-7.15,11.83-4.35,2.13,1.92,2.4,6.43-2.16,11.47-.26.29-.53.58-.8.87,5.37-1.63,11.12-1.83,12.42,2.15.89,2.73-1.13,6.77-7.61,8.86-.37.12-.75.24-1.13.35,5.47,1.27,10.55,3.98,9.68,8.07-.6,2.81-4.37,5.29-11.02,3.87-.38-.08-.77-.17-1.15-.26,4.1,3.84,7.15,8.72,4.35,11.83-1.92,2.13-6.43,2.4-11.47-2.16-.29-.26-.58-.53-.87-.8,1.63,5.37,1.83,11.12-2.15,12.42-2.73.89-6.77-1.13-8.86-7.61-.12-.37-.24-.75-.35-1.13-1.27,5.47-3.98,10.55-8.07,9.68-2.81-.6-5.29-4.37-3.87-11.02.08-.38.17-.77.26-1.15-3.84,4.1-8.72,7.15-11.83,4.35-2.13-1.92-2.4-6.43,2.16-11.47.26-.29.53-.58.8-.87-5.37,1.63-11.12,1.83-12.42-2.15-.89-2.73,1.13-6.77,7.61-8.86Z"/>
        <circle class="cls-5" cx="2590.33" cy="1216.67" r="8.76"/>
      </g>
      <path class="cls-3" d="M2727.47,1327.43c-11.74-37.16-32.41-7.67-36.1,14.46-2.88-17.94-15.96-74.88-38.27-63.45-17.6,9.02-13.74,46.12-12.12,67.69-8.54-11.31-28.93-40.31-40.35-26.64-8.75,10.47,7.74,50,23.09,68.35,1.68,1.58,1.27,4.64,5,4.43,30.29-1.06,60.6-.99,90.87.22,8.91-.79,14.08-45.4,7.88-65.05Z"/>
    </g>
    <g>
      <path class="cls-11" d="M791.74,1886.45c-5.98-21.11-21.31-35.56-43.88-26.62,31.31-62.88-19.84-123.98-83.81-82.95-4.24-30-18.31-60.45-49.18-70.27-43.37-13.8-78.08,15.72-90.04,56.23-1.62-53.88-18.32-118.92-74.68-138.76-76.73-25.46-145.04,38.7-155.15,112.63-74.36-25.76-121.26,38.23-80.58,103.23-20.7-6.25-43.95,7.34-49.91,27.94-12.08,42.69,13.6,91.44,52.25,110.98,1.19.6,2.35.71,3.39.47,20.62.35,41.24.7,61.86,1.05,1.11.02,2.03-.27,2.75-.75,55.93,4.91,111.99,8.97,168.16,8.19,69.07-1.54,137.82-9.23,206.71-14.09,39.02-3.08,78.03-6.17,117.05-9.25,2.95-.23,4.17-2.74,3.86-5.02,9.59-22.82,18.07-48.18,11.22-73Z"/>
      <path class="cls-11" d="M3048.88,1778.43c-16.33-29.34-53.79-37.42-83.34-23.41,1.14-77.11-74.66-85.99-116.01-30.88-2.77-44.01-25.67-91.15-69.46-106.56-78.83-25.13-143.56,49.21-153.03,121.92-7.17-6.25-17.23-8.63-26.68-9.09-36.68-2.2-60.34,18.48-61.58,54.92-63.17-35.8-121.93-2.11-114.95,71.82,6.48,46.31,26.37,91.33,54.65,128.43.26.88.81,1.64,1.7,2.15,1.64,2.07,3.83,2.11,5.53,1.06,103.61,14.59,208.44,14.01,312.68,7.71,74.12-3.52,148.41-8.4,221.47-21.91,2.54-.47,3.62-2.3,3.61-4.26,23.96-54.95,55.69-134.52,25.41-191.9Z"/>
      <path class="cls-11" d="M1893.58,1845.09c-31.5-110.64-119.88-70.25-114.56,24.98-19.31-29.22-65.5-28.7-72.21,9.94-9.21,42.08,4.18,77.06,31.04,107.13,65.34,1.23,130.73,1.83,196.09,2.85,4.17.06,38.45-53.97,40.28-110.2,1.61-49.3-50.88-88.57-80.64-34.71Z"/>
    </g>
    <g>
      <path class="cls-8" d="M675.25,316.86c-7.25-10.77-16.73-19.39-27.09-26.94,8.86-25.72,9.37-55.95-8.04-76.79-22.38-26.79-64.13-31.63-94.71-17.72-2.85,1.29-5.6,2.77-8.27,4.38-12.04-29.32-34.4-54.47-63.66-67.4-34.02-15.03-74.3-13.71-105.73,6.97-13.12,8.63-24.29,20.06-32.31,33.51-2.2-5.47-4.89-10.73-8.15-15.67-13.03-19.71-34.06-31.38-57.65-32.34-50.57-2.05-87.05,40.49-97.63,86.47-4.5,19.56-5.01,42.32,5.1,59.97,2.6,63.45,5.1,127.02,2.13,190.5-2.98,63.62-13.09,126.57-18.11,190.01-2.53,31.96-3.6,64.04-1.77,96.05-2.71,1.16-4.48,3.82-2.99,7.38,15.97,38.2,54.38,69.22,94.16,79.88,20.07,5.38,41.82,4.66,60.76-4.3,18.74-8.87,31.38-26.13,38.24-45.29,8.03-22.42,7.42-46.53,5.72-70.03,20,17.44,49.23,21.55,73.46,7.66,29.15-16.71,34.63-50.11,36.51-80.88,34.96,1.94,74.15,1.29,100.05-25.58,24.94-25.88,34.04-69.17,30.38-104.05-1.9-18.15-7.72-35.36-18.8-49.7,33.83-3.01,68-16.23,89.55-43.22,22.73-28.46,29.98-71.45,8.83-102.89Z"/>
      <path class="cls-12" d="M0,1011.69c78.11-23.36,158.32-47.79,222.16-98.5,64.2-51,106.81-125.17,133.01-202.87,26.2-77.69,37.28-159.53,48.23-240.79-5.26-.42-9.04-2.26-14.3-2.68-6.71,91.6-37.77,205.18-106.91,259.32-24.1-11.55-20.9-135.72-15.68-196.96-3.86.13-6.98-1.36-10.84-1.23-13.58,65.6-20.53,184.79,6.39,249.19-47.83,91.23-132.69,117.24-228.04,156.21-10.63,26.97-23.4,51.33-34.02,78.3Z"/>
      <path class="cls-15" d="M598.25,332.34c-3.82-13.8-12.16-25.72-24.62-32.45,3.5-27.73-9.09-58.64-35.27-70.82-24.3-11.31-50.33-2.46-67.75,15.43-23.46-35.04-73.43-54.85-110.44-30.42-13.41-23.11-40.4-36.32-67.06-31.95-14.15,2.32-27.79,9.51-37.52,20.07-8.46,9.19-14.4,20.81-18.85,32.69-5.45-8.96-11.68-17.44-19.02-24.4-13.63-12.95-33.63-15.24-51.54-11.93-16.93,3.12-32.98,13.38-46.02,24.25-13.54,11.29-24.88,25.39-32.9,41.1-9.68,18.96-14.66,40-14.73,61.27,0,1.69.69,2.94,1.71,3.74-2.14,10.28-4.29,20.55-6.43,30.83-4.74,22.7-9.55,45.39-14.18,68.11-4.91,24.11-11.12,49.45-11.03,74.18.04,12.18,3.22,23.03,7.37,34.35,1.32,3.59,2.72,7.44,3.79,11.38-2.96.53-5.52,2.7-5.6,6.63-1,48.5,32.27,89.03,74.96,108.38,22.74,10.3,48.34,15.27,73.26,15.58,22.88.29,47.06-4.68,62.78-22.6,14.72-16.78,18.94-39.36,21.1-61.14,10.63,7.91,23.44,11.27,35.11.32,12.06-11.32,18.99-28.78,22.68-45.38,14.84,9.69,32.85,14.49,50.85,12.72,17.47-1.72,32.58-9.81,42.88-24.11,10.54-14.64,16.6-32.35,19.34-50.11,12.61,2.7,25.98,1.49,38.06-3.8,9.62-4.21,18.25-11.26,22.91-20.78,4.17-8.52,5.09-18.01,5.3-27.39,23.16,7.38,48.22-1.05,63.84-20.57,17.97-22.46,24.73-55.41,17.05-83.16Z"/>
    </g>
    <g>
      <path class="cls-8" d="M3138.51,137.5c-20.18-46.76-52.88-87.64-94.25-117.37-3.94-2.83-8.32-2.04-11.37.31-32.76-24.93-77.83-27.62-112.82-4.97-36.95,23.92-46.83,66.7-51.17,107.72-25.84-3.36-53.45,6.76-67.38,29.68-12.82,21.1-10.32,48.53,3.64,68.14-9.13,9.72-16.15,21.58-21.71,33.97-11.08,24.72-17.97,52.51-15.15,79.71,4.32,41.63,37.63,82.97,80.96,83.22-7.52,40.78,11.45,83.42,49.98,103.26,32.44,16.7,69.66,12.37,97.86-7.19,25.7,18.98,59.18,25.92,90.98,16.64,43.93-12.81,69.84-51.64,77.52-95.04,3.86-21.83,4.1-44.21,3.61-66.31-.58-26.3-1.58-52.61-2.92-78.88-2.65-51.84-6.97-104.71-27.78-152.92Z"/>
      <path class="cls-12" d="M3208.66,625.39c-73.58-24.2-160.67-69.16-201.37-135.06,16.79-49.72,5.28-138.77-8.37-187.25-2.91.11-5.16,1.39-8.07,1.5,7.15,45.66,17.69,160.93.22,170.87-37.71-48.63-63.53-112.88-73.4-181.24-3.92.59-6.66,2.18-10.58,2.77,11.52,55.6,23.17,111.56,43.49,164.5-24.27-10.98-57.76-54-65.13-101.3l-6.14-1.65s6.34,89.95,48.75,117.76c16.41,10.76,28.61,15.52,36.35,17.63,23.54,49.69,56.88,95.31,102.06,126.28,50.57,34.66,112.02,48.75,171.84,62.15-9.4-19.67-20.26-37.27-29.66-56.94Z"/>
      <path class="cls-15" d="M3045.62,126.15c-2.1-3.31-5.2-4.32-8.13-3.84-29.08-11.98-62.2-10.79-89.9,4.57-24.49,13.58-41.98,37.72-48.84,64.66-22.08,1.16-42.86,11.6-53.42,32.29-12.21,23.93-2.95,46.72,10.58,67.08-22.96,19.71-32.08,53.67-10.73,79.82,11.81,14.48,31.12,20.95,49.33,17.01,16.49-3.57,28.18-15.18,38.02-28.08,16.64,21.05,47.25,31.43,73.27,25.75,34.95-7.64,45.76-52.35,47.56-83.2.38-1.12.54-2.4.39-3.84-3.16-31.22-.87-61.34,3.07-92.34,3.49-27.44,4.21-55.67-11.18-79.87Z"/>
    </g>
  </g>
</svg>