<?xml version="1.0" encoding="UTF-8"?>
<svg xmlns="http://www.w3.org/2000/svg" xmlns:xlink="http://www.w3.org/1999/xlink" viewBox="0 0 2000 1125">
  <defs>
    <style>
      .cls-1 {
        fill: none;
      }

      .cls-1, .cls-2, .cls-3, .cls-4, .cls-5, .cls-6, .cls-7, .cls-8, .cls-9, .cls-10, .cls-11, .cls-12, .cls-13, .cls-14, .cls-15, .cls-16, .cls-17, .cls-18, .cls-19, .cls-20, .cls-21, .cls-22, .cls-23, .cls-24, .cls-25, .cls-26, .cls-27, .cls-28, .cls-29, .cls-30, .cls-31, .cls-32, .cls-33, .cls-34, .cls-35 {
        stroke-width: 0px;
      }

      .cls-2 {
        fill: #b6f4ab;
      }

      .cls-3 {
        fill: #529bdd;
      }

      .cls-4 {
        fill: url(#linear-gradient);
      }

      .cls-5 {
        fill: #546f7f;
      }

      .cls-6 {
        fill: #a2dd7c;
      }

      .cls-7 {
        fill: #bc9b66;
      }

      .cls-8 {
        fill: #81ba7a;
      }

      .cls-9 {
        fill: #d3d3d3;
      }

      .cls-10 {
        fill: #54704f;
      }

      .cls-11 {
        fill: #485c6b;
      }

      .cls-12 {
        fill: #915743;
      }

      .cls-13 {
        fill: #9dc1c6;
      }

      .cls-14 {
        fill: #a7c148;
      }

      .cls-15 {
        fill: #a2ceea;
      }

      .cls-16 {
        fill: #327777;
      }

      .cls-17 {
        fill: #e9eae8;
      }

      .cls-18 {
        fill: #709e6a;
      }

      .cls-19 {
        fill: #448e91;
      }

      .cls-20 {
        fill: #7ac2f9;
      }

      .cls-21 {
        fill: #f2f2f2;
      }

      .cls-22 {
        fill: #ad735c;
      }

      .cls-23 {
        fill: #f9e450;
      }

      .cls-24 {
        fill: #98e565;
      }

      .cls-25 {
        fill: #7a7a7a;
      }

      .cls-26 {
        fill: #1866a0;
      }

      .cls-27 {
        fill: url(#linear-gradient-2);
      }

      .cls-28 {
        fill: #7bafd6;
      }

      .cls-29 {
        fill: #fff;
      }

      .cls-30 {
        fill: #324754;
      }

      .cls-31 {
        fill: #565656;
        opacity: .28;
      }

      .cls-32 {
        fill: #71aa4d;
      }

      .cls-33 {
        fill: #8ec967;
      }

      .cls-34 {
        fill: #6695bf;
      }

      .cls-35 {
        fill: #91ce88;
      }
    </style>
    <linearGradient id="linear-gradient" x1="999.7" y1="0" x2="999.7" y2="537.14" gradientUnits="userSpaceOnUse">
      <stop offset="0" stop-color="#2cc1f8"/>
      <stop offset=".28" stop-color="#3bcbf8"/>
      <stop offset=".62" stop-color="#46d3f8"/>
      <stop offset="1" stop-color="#4ad6f9"/>
    </linearGradient>
    <linearGradient id="linear-gradient-2" x1="1000" y1="993.51" x2="1000" y2="743.24" gradientUnits="userSpaceOnUse">
      <stop offset="0" stop-color="#485c6b"/>
      <stop offset="1" stop-color="#546f7f"/>
    </linearGradient>
  </defs>
  <g id="Layer_6" data-name="Layer 6">
    <rect class="cls-4" width="1999.39" height="537.14"/>
  </g>
  <g id="Layer_7" data-name="Layer 7">
    <path class="cls-17" d="M1955.62,467.79c-6.04-15.18,10.65-26.37-9.16-36.8-6.51-3.43-19.09-1.17-23.82-4.39-7.07-4.81-3.48-10.28-9.47-17.92-6.33-8.07-21.48-11.62-32.28-12.95.31-1.35.49-2.74.49-4.16,0-13.21-14.15-23.91-31.6-23.91-5.48,0-10.63,1.06-15.13,2.91-10.16-2.24-21.21-3.91-30.12-3.89,2.18-11.26-6.73-17.25-16.64-20.13.18-1.03.28-2.08.28-3.14,0-13.12-14.01-23.76-31.29-23.76-1.41,0-2.8.08-4.17.22-.26-3.84-.07-8.56-1.34-11.32-3.14-6.81-11.81-14.92-18.72-17.7-1.35-.54-2.72-.77-4.11-.86,0-.21,0-.42,0-.64-.62-14.36-14.74-25.41-31.54-24.69-2.61.11-5.13.5-7.52,1.14,1.26-3.42,1.95-7.02,1.95-10.74,0-21.74-22.9-39.36-51.16-39.36-5.73,0-11.23.73-16.37,2.07-.47-1.11-1.17-2.51-2.23-4.3-6.01-10.15-10.29-11.85-22.18-18.86-.27-22.75-20.87-32.93-37.26-35.35-19.08,0-37.37.47-44.3,21.54-1.58,4.8,1.9,11.97-.19,16.39-2.5,5.29-6.03,3.27-9.64,7.46-7.3,8.48-15.54,17.95-14.41,30.13-31.09,10.09-45.54,36.31-46.01,68.28-6.45,1.75-13.69,5.81-17.33,11.79-3.61,5.93-.95,14.65-6.21,18.28-4.14,2.85-16.17-.53-21.7,1.26-8.24,2.65-18.07,8.89-20.2,17.79-33.27,1.44-79.3-7.87-80.09,40.05-8.18.57-15.88-.34-23.91,1.92-14.02,3.94-19.19,16.05-29.7,22.14-20.19,11.69-39.88,4.61-52.96,28.93-1.64,3.06-.51,7.55-2.39,11.03-2.38,4.41-8.18,7.29-10.94,11.53-6.13,9.42-6.09,17-6.17,27.88-.07,9.54-.12,19.2.08,28.68,32.65,11.24,80.49,3.23,113.84,3.23,36.18,0,72.37-.08,108.55-.01,25.27.05,50.14-.74,75.33-2.63,42.23-3.18,84.7.78,126.72-4.68,75.98-9.87,153.96-11.04,230.41-14.95,22.68-1.16,46.07-.39,68.62,1.08,16.67,1.08,41.69,9.44,56-1.26,6.27-4.69,10.22-12.13,10.66-19.96.79-14.1-6.97-8.07-10.67-17.37Z"/>
    <path class="cls-17" d="M962.95,489.09c-8.1-11.86-30.52-13.97-36.14-28.07-.89-2.23,1.64-6.3.33-8.42-2.49-4.03-.78-6.02-4.33-10.35-4.7-5.73-18.35-6.39-21.85-11.79-2.79-4.31-.43-13.99-1.92-19.27-.92-3.25-6.81-4.5-7.53-7.76-.67-3.02,3.3-3.62,3.04-5.75-.61-5.16,1.91-14.02-.22-18.7-6.27-13.85-25.79-15.04-41-19.04,1.61-3.4,2.49-7.08,2.49-10.92,0-17.5-18.26-31.69-40.78-31.69-18.52,0-34.15,9.6-39.12,22.74-1.16.37-2.28.99-3.33,1.97-1.54,1.44-2.55,4.25-3.27,7.35-1.49-.24-3.01-.37-4.57-.37-15.65,0-28.34,12.69-28.34,28.34,0,2.27.27,4.47.78,6.58-5.73-.48-12.12-1.86-16.61,1.9-5.36,4.49-7.74,16.75-7.63,23-8.04-13.1-42.33-7.8-55.79-6.64-14.51,1.25-31.77,3.7-35.96,19.88-6.64-11.93-26.62-12.57-39.26-11.33-7.24.71-13.77,5.51-19.84,5.88-1.02.06-3.92-3.33-5.45-3.47-9.9-.94-17.05-3.82-28.05-3.19-11.39.65-27.73.43-33.36,12.34-11.66-9.29-29.71-12.6-47.24-11.63.17-1.29.27-2.6.27-3.94,0-16.23-13.16-29.39-29.39-29.39-13.09,0-24.17,8.56-27.98,20.38-5.82-2.04-12.35-3.18-19.23-3.18-20.65,0-38.02,10.27-43.07,24.21-14.1-.18-28.57-2-42.94,2.37-.45-14.78,2.14-30.49-10.2-41.51-5.51-4.92-11.95-6.26-18.76-6.31,4.14-5.66,6.56-12.38,6.56-19.6,0-20.1-18.62-36.39-41.58-36.39-8.78,0-16.92,2.39-23.64,6.45-4.73-1.69-10-2.64-15.56-2.64-10.01,0-19.08,3.05-25.71,8-1.48-1.46-3.07-2.93-4.91-4.29,0-.2.02-.39.02-.59,0-13.67-14.99-24.76-33.48-24.76-2.18,0-4.31.16-6.38.45-6.36-6.78-16.92-10.04-26.99-11.14-1.85-14.63-5.81-23.54-20.72-30.19-10.4-4.64-52.84-9.4-64.3.07v311.43c23.46-2.17,46.92-4.85,70.84-4.92,146.06-.43,292.14.55,438.2.21,86.14-.2,172.37-1.04,258.47-3.38,45.56-1.24,99.42,3.76,144.49-7.05,11.62-2.79,20.81-7.17,28.06-16.48,5.11-6.57,7.19-13.16,12.63-18.98,2.44-2.61,7.51-2.85,10.43-7.6,4.4-7.16,4.29-16.31-.17-22.84Z"/>
  </g>
  <g id="Layer_5" data-name="Layer 5">
    <polygon class="cls-1" points="1576.37 452.38 1657.81 444.22 1481.15 444.22 1428.85 467.65 1417.21 467.65 1497.41 475.17 1576.37 452.38"/>
    <path class="cls-16" d="M1942.58,522.29c-10.77,1.49-57.42-7.49-57.42-7.49,0,0-89.23-20.73-93.68-26.74-4.46-6.01-67.57-6.28-67.57-6.28l14.11,21.53h-78.71v-24.09l-31.44,19.31-23,12.06s-67.35-10.58-74.99-7.28c-7.64,3.3-62.4-15.25-62.4-15.25l19.81,19.01s-6.11-4.78-26.67-3.76c-20.56,1.03-68.63-16.66-84.98-19.29-16.35-2.63-37.11-16.36-37.11-16.36h-49.77l9.88,14.13-20.41,12.29-27.73,9.24-22.68,7.28v-22.53l22.68-20.4s-29.3,8.59-39.02,11.56c-9.72,2.97-45.23,19.31-49.65,24.09-4.42,4.78-37.19,18.98-37.19,18.98l8.88-15.22-60.85,3.52,12.54-17.96c-10.36,4.16-25.8,9.92-37.78,14.43-17.74,6.69-146.95,31.9-146.95,31.9h1099.54v-17.19c-24.4-.22-51.71-.27-57.42.52Z"/>
    <polygon class="cls-13" points="1918.66 503.31 1969.69 510.59 2000 512.18 2000 507.06 1898.4 487.56 1827.36 469.2 1717.21 444.22 1657.81 444.22 1846.37 484.51 1918.66 503.31"/>
    <path class="cls-13" d="M1095.68,504.47l106.17-36.81,48.62-15.27h18.9s11.07,11.13,0,15.27c-11.07,4.14-41.56,35.65-41.56,35.65l46.49-28.14,14.44-16.74,18.58-6.05h41.58l42.93,15.27h25.39l-34.16-15.27-54.44-8.17-59.24-8.07-41.56,8.16-40.8,15.61s-43.07,13.37-50.5,15.25c-2.69.68-8.12,2.19-14.18,3.96l8.24,2.65-34.9,22.69Z"/>
    <path class="cls-19" d="M1969.69,510.59l-51.03-7.28-72.29-18.79-188.57-40.3-81.44,8.17-78.96,22.78-80.2-7.51h-25.39l-42.93-15.27h-41.58l-18.58,6.05-14.44,16.74-46.49,28.14s30.49-31.52,41.56-35.65c11.07-4.14,0-15.27,0-15.27h-18.9l-48.62,15.27-106.17,36.81,34.9-22.69-8.24-2.65c-10.67,3.12-23.34,7.08-26.66,8.93-1.69.94-5.5,2.57-10.49,4.57l-12.54,17.96,60.85-3.52-8.88,15.22s32.77-14.2,37.19-18.98c4.42-4.78,39.93-21.12,49.65-24.09,9.72-2.97,39.02-11.56,39.02-11.56l-22.68,20.4v22.53l22.68-7.28,27.73-9.24,20.41-12.29-9.88-14.13h49.77s20.76,13.73,37.11,16.36c16.35,2.63,64.42,20.32,84.98,19.29,20.56-1.03,26.67,3.76,26.67,3.76l-19.81-19.01s54.76,18.55,62.4,15.25c7.64-3.3,74.99,7.28,74.99,7.28l23-12.06,31.44-19.31v24.09h78.71l-14.11-21.53s63.12.27,67.57,6.28c4.46,6.01,93.68,26.74,93.68,26.74,0,0,46.65,8.97,57.42,7.49,5.71-.79,33.02-.74,57.42-.52v-9.59l-30.31-1.59Z"/>
    <polygon class="cls-16" points="578.1 514.8 589.99 467.65 524.28 522.29 524.28 503.31 489 538.96 581.07 538.96 576.62 528.94 578.1 514.8"/>
    <path class="cls-16" d="M431.07,522.29l57.92-54.63s-35.64,20.48-40.1,20.4c-4.46-.07-40.91,23.43-40.91,23.43l-28.53,3.31-34.54-3.31,50.52-27.47s-16.34,5.6-23.76,4.04c-7.43-1.56-53.47,16.41-62.38,22.53s-49.01-.18-59.41,4.21c-10.4,4.39-53.47,8.97-64.15,7.49s-40.08,0-40.08,0l-52.79-7.49-9.2,2.13L0,536.3v2.66h489l-44.55-10.02-13.37-6.65Z"/>
    <path class="cls-19" d="M1250.48,514.8l-88.67-4.14-26.77,4.14-48.34-4.21-63.05-7.61s-57.92-14.85-62.38-18.97c-4.46-4.11-78.71-10.57-78.71-10.57l-63.86-21.06h-44.43s20.67,7.53,26.66,9.02c5.99,1.49,40.05,14.59,40.05,14.59l59.49,12.07,66.75,22.53-54.95-9.09-59.41-13.44-51.93-4.04-26.66-10.57-37.85-21.06s-12.77-4.35-21.99-8.08c-9.23-3.73-11.57-11.13-13.03-17.07-1.47-5.94-22.29,0-22.29,0l-18.49,7.43-29.41,17.72-12.99,31.63-32.67,38.27s8.91-29.7,10.4-34.23c1.49-4.53,14.85-28.15,14.85-28.15l7.43-25.25-22.28,17.72-34.16,16.44-28.22,15.19-54.95,38.27s0-13.37,4.46-11.7c4.46,1.67,29.68-22.53,29.68-22.53l44.58-29.63,32.67-23.76s-60.89,7.43-76.31,9.64c-15.42,2.21-85.57,17.09-90.02,21.55-4.46,4.46-57.92,5.94-64.03,9.31-6.11,3.37-57.75,9.99-114.19,20.37-56.43,10.38-138.95,0-138.97,0-58.07,5.21-106.47,8.93-106.47,8.93v31.83l83.67-19.37,9.2-2.13,52.79,7.49s29.4-1.49,40.08,0,53.75-3.1,64.15-7.49c10.4-4.39,50.49,1.91,59.41-4.21s54.95-24.09,62.38-22.53c7.43,1.56,23.76-4.04,23.76-4.04l-50.52,27.47,34.54,3.31,28.53-3.31s36.45-23.5,40.91-23.43c4.46.07,40.1-20.4,40.1-20.4l-57.92,54.63,13.37,6.65,44.55,10.02,35.28-35.65v18.98l65.71-54.63-11.88,47.14-1.49,14.14,4.46,10.02h38.61l21.86-16.67,19.06-18.98,11.06-28.14,8.91,35.42,14.85,11.7h18.99l21.99-11.7s82.28,2.66,86.74,4.21c4.46,1.55,96.53,13.61,96.53,13.61l89.11.53-34.16-25.63s49.16,18.98,59.48,18.98c10.32,0,99.43,5.88,103.89,6.65,4.46.78,63.85,10.02,63.85,10.02h226.99l-178.37-24.16Z"/>
    <path class="cls-16" d="M1034.12,522.29c-10.32,0-59.48-18.98-59.48-18.98l34.16,25.63-89.11-.53s-92.08-12.06-96.53-13.61c-4.46-1.55-86.74-4.21-86.74-4.21l-21.99,11.7h-18.99l-14.85-11.7-8.91-35.42-11.06,28.14-19.06,18.98-21.86,16.67h582.16s-59.39-9.25-63.85-10.02c-4.46-.78-93.56-6.65-103.89-6.65Z"/>
    <path class="cls-13" d="M245.43,495.54c56.44-10.38,108.08-17,114.19-20.37,6.11-3.37,59.57-4.86,64.03-9.31,4.46-4.46,74.6-19.33,90.02-21.55,15.42-2.21,76.31-9.64,76.31-9.64l-32.67,23.76-44.58,29.63s-25.22,24.2-29.68,22.53c-4.46-1.67-4.46,11.7-4.46,11.7l54.95-38.27,28.22-15.19,34.16-16.44,22.28-17.72-7.43,25.25s-13.37,23.62-14.85,28.15c-1.49,4.53-10.4,34.23-10.4,34.23l32.67-38.27,12.99-31.63,29.41-17.72,18.49-7.43s20.83-5.94,22.29,0c1.47,5.94,3.81,13.34,13.03,17.07,9.23,3.73,21.99,8.08,21.99,8.08l37.85,21.06,26.66,10.57,51.93,4.04,59.41,13.44,54.95,9.09-66.75-22.53-59.49-12.07s-34.06-13.11-40.05-14.59c-5.99-1.49-26.66-9.02-26.66-9.02h44.43l63.86,21.06s74.26,6.46,78.71,10.57c4.46,4.11,62.38,18.97,62.38,18.97l63.05,7.61,48.34,4.21,26.77-4.14-1.52-.07s-51.98-7.61-64.6-6.12c-12.62,1.49-66.09-11.88-75-16.41-8.91-4.53-71.29-12.89-71.29-12.89,0,0-54.95-10.8-63.86-16.42-8.91-5.62-60.89-15.17-69.8-14.53-8.91.64-65.35-16.98-69.8-19.95-4.46-2.97-85.32-11.25-85.32-11.25l-83.99,8.28-127.72,22.92s-99.5,18.67-163.37,30.95c-34.02,6.54-112.84,14.43-179.06,20.37.02,0,82.54,10.38,138.97,0Z"/>
  </g>
  <g id="Layer_1" data-name="Layer 1">
    <rect class="cls-30" y="1092.26" width="58.63" height="17.59"/>
    <polygon class="cls-20" points="1669.5 732.41 1652.47 704 1114.15 704 1124.62 732.41 1669.5 732.41"/>
    <polygon class="cls-3" points="1257.22 1092.26 1885.15 1092.26 1837.32 1012.45 1227.81 1012.45 1257.22 1092.26"/>
    <polygon class="cls-11" points="660.61 1012.45 631.2 1092.26 1257.22 1092.26 1227.81 1012.45 660.61 1012.45"/>
    <polygon class="cls-5" points="1124.62 732.41 1114.15 704 774.27 704 763.8 732.41 1124.62 732.41"/>
    <polygon class="cls-3" points="660.61 1012.45 106.46 1012.45 58.63 1092.26 631.2 1092.26 660.61 1012.45"/>
    <polygon class="cls-20" points="763.8 732.41 774.27 704 291.31 704 274.29 732.41 763.8 732.41"/>
    <polygon class="cls-11" points="1885.15 1092.26 2000 1092.26 2000 1012.45 1837.32 1012.45 1885.15 1092.26"/>
    <polygon class="cls-5" points="1652.47 704 1669.5 732.41 2000 732.41 2000 704 1652.47 704"/>
    <polygon class="cls-5" points="291.31 704 0 704 0 732.41 274.29 732.41 291.31 704"/>
    <polygon class="cls-27" points="1675.98 743.24 1128.61 743.24 759.81 743.24 267.8 743.24 0 743.24 0 993.51 117.82 993.51 667.59 993.51 1220.83 993.51 1825.97 993.51 2000 993.51 2000 743.24 1675.98 743.24"/>
    <polygon class="cls-11" points="0 1012.45 0 1092.26 58.63 1092.26 106.46 1012.45 0 1012.45"/>
    <rect class="cls-30" x="1885.15" y="1092.26" width="114.85" height="17.59"/>
    <rect class="cls-26" x="1257.22" y="1092.26" width="627.93" height="17.59"/>
    <rect class="cls-30" x="631.2" y="1092.26" width="626.03" height="17.59"/>
    <rect class="cls-26" x="58.63" y="1092.26" width="572.57" height="17.59"/>
    <polygon class="cls-29" points="1669.5 732.41 1124.62 732.41 763.8 732.41 274.29 732.41 0 732.41 0 743.24 267.8 743.24 759.81 743.24 1128.61 743.24 1675.98 743.24 2000 743.24 2000 732.41 1669.5 732.41"/>
    <polygon class="cls-29" points="1825.97 993.51 1220.83 993.51 667.59 993.51 117.82 993.51 0 993.51 0 1012.45 106.46 1012.45 660.61 1012.45 1227.81 1012.45 1837.32 1012.45 2000 1012.45 2000 993.51 1825.97 993.51"/>
    <polygon class="cls-23" points="104.17 865.94 0 865.94 0 845.1 119.79 845.1 104.17 865.94"/>
    <path class="cls-23" d="M1696.76,865.94h-199.07l-10.42-20.83h193.86l15.62,20.83ZM1298.61,865.94h-199.07v-20.83h188.66l10.42,20.83ZM900.46,865.94h-199.07l10.42-20.83h188.66v20.83ZM502.32,865.94h-199.07l15.62-20.83h193.87l-10.42,20.83Z"/>
    <polygon class="cls-23" points="2000 865.94 1895.83 865.94 1880.21 845.1 2000 845.1 2000 865.94"/>
  </g>
  <g id="Layer_2" data-name="Layer 2">
    <rect class="cls-33" y="1109.85" width="2000" height="15.15"/>
    <path class="cls-6" d="M59.9,555.56s1448.75-10.25,1569.74-6.17c120.99,4.08-32.18,18.7-20.2,19.19,11.98.49,185.36-.49,227.88,0,42.52.49-62.19,11.67-62.19,11.67l224.87,14.99v-56.28H0v50.52c52.43-3.02,124.66-7.63,138.25-10.83,21.79-5.13-78.35-23.09-78.35-23.09Z"/>
    <path class="cls-33" d="M1775.13,580.25s104.7-11.18,62.19-11.67c-42.52-.49-215.9.49-227.88,0-11.98-.49,141.19-15.11,20.2-19.19-120.99-4.08-1569.74,6.17-1569.74,6.17,0,0,100.14,17.96,78.35,23.09-13.59,3.2-85.82,7.81-138.25,10.83v114.53h2000v-108.76l-224.87-14.99Z"/>
    <path class="cls-6" d="M1433.55,657.64c-3.97,0-7.74.3-11.16.84,1.44-1.47,2.25-3.11,2.25-4.84,0-6.2-10.31-11.22-23.02-11.22-.79,0-1.58.02-2.35.06,1.52-1.26,2.35-2.6,2.35-4.01,0-6.76-19.12-12.25-42.7-12.25-8.14,0-15.76.65-22.23,1.79-2.56-1.16-4.27-2.29-4.87-3.25-21.84,0-50.96-4.64-71.85,0-9.51,2.11-29.46,8.67-10.76,18.2-1.77,1.95-3.98,3.65-6.42,5.2-12.57,1.55-21.62,5.87-21.62,10.95,0,1,.35,1.98,1.02,2.91-5.84,2.72-12.14,5.92-15.28,11.4,56.03,2.07,112.19,2.57,168.45,2.57,8.84,0,37.29,3.94,57.98,2.35.07,0,.14,0,.22,0,15.58,0,28.22-4.64,28.22-10.36s-12.63-10.36-28.22-10.36Z"/>
    <path class="cls-28" d="M1137.28,616.61c-109.7-26.87-223.71-36.05-336.29-27.08,4.97,1.8,43.45,7.74,43.63,13.02-55.6,1.67-146.1.66-201.69-1.16,3.83-1.56,7.66-3.11,11.49-4.67-176.79-21.14-356.01-21.93-532.99-2.34-5.66,7.35-5.32,13.4-2.15,18.43,60.98,9.35,166.02,8.03,249.58,12.07,83.87,4.06,93.34,24.35,174.51,31.11,81.17,6.76,357.14-9.47,424.78-9.47s63.58-5.41,75.76-16.23c11.36-10.09,43.9-4.89,95.43-5.24,1.36-.43,2.72-.85,4.08-1.28,2.07-3.09-2.54-6.27-6.15-7.16ZM734.99,635.87c-8.51,7.96-22.52,9.71-34.79,10.26-44.49,1.99-89.08,1.89-133.57-.29-5.84-.29-13.5-3.41-14.47-8.04-.42-2.01-1.99-3.56-4.04-3.67-80.01-4.41-159.93-10.38-239.7-17.89-4.91-.46-10.23-1.17-14.78-3-4.19-1.68-3.33-7.87,1.15-8.42l27.84-3.42c2.12-.26,3.75-2.01,3.85-4.14.11-2.18,1.8-3.94,3.97-4.15,35.22-3.41,67.78-8.22,102.68-1.27,39.95,7.95,80.86,8.35,121.27,12.43,16.61,1.68,33.15,3.97,49.59,6.88,3.06.54,6.65,3.04,7.56,5.42.69,1.82,2.62,2.85,4.56,2.68,39.14-3.52,78.86-.42,116.98,9.13,3.4.85,4.46,5.13,1.9,7.52ZM1024.21,623.69c-4.81.87-10.11.79-14.1,3.3-2.2,1.39-3.73,3.42-5.63,5.11-7.72,6.9-20.07,7.32-31.13,7.29-35.24-.1-70.49-.19-105.73-.29-11.54-.03-23.48-.16-34.6-2.47-5.08-1.06-5.19-8.26-.14-9.4,12.35-2.78,24.81-5.17,37.36-7.15,5.43-.86,5.43-8.65,0-9.5-.11-.02-.22-.03-.32-.05-3.08-.48-5.02-3.76-3.71-6.59.77-1.66,2.16-3.16,3.88-4.11,3.84-2.14,8.67-2.27,13.22-2.32,45.87-.42,97.23-3.93,140.81,9.97,4.56,1.45,9.8,3.93,9.99,8.17.19,4.29-5.1,7.17-9.91,8.04Z"/>
    <path class="cls-34" d="M1189.58,614.72c-112.28-14.88-214.67-37.02-314.1-39.32-110.06-2.54-197.36,13.01-306.84,1.44-34.06-3.6-90.85-5.35-125.03-7.45-25.28-1.55-50.64-.57-75.95.4-75.14,2.9-150.28,5.79-225.42,8.69-11.75.45-23.99,1.04-34.25,6.78-8.97,5.02-15.43,13.43-23.07,20.32,9.46,2.66,20.74,5.1,33.68,7.11.23.04.46.07.69.1-3.17-5.03-3.5-11.08,2.15-18.43,176.97-19.58,356.19-18.8,532.99,2.34-3.83,1.56-7.66,3.11-11.49,4.67,55.6,1.82,146.09,2.83,201.69,1.16-.18-5.28-38.66-11.22-43.63-13.02,112.58-8.97,226.59.21,336.29,27.08,3.61.89,8.23,4.07,6.15,7.16-1.36.43-2.72.85-4.08,1.28,3.72-.03,7.53-.08,11.44-.17,27.51-.64,40.49-.98,47.4-1.87-.8-4.28-1.96-7.41-8.61-8.29Z"/>
    <path class="cls-7" d="M1180.62,599.17s-33.89-8.12-86.65-13.53c-52.76-5.41-75.76-8.12-143.4-19.59-67.64-11.48-123.11-.7-194.81-.16-71.7.54-121.75-.54-171.81,0-50.05.54-178.57-15.42-230-8.66-51.43,6.76-193.43,8.66-193.43,8.66,0,0-64.94,4.87-96.05,11.63-24.5,5.33-14.6,18.2,20.43,28.06,7.65-6.9,14.1-15.3,23.07-20.32,10.26-5.74,22.51-6.33,34.25-6.78,75.14-2.9,150.28-5.79,225.42-8.69,25.31-.98,50.67-1.95,75.95-.4,34.19,2.09,90.97,3.85,125.03,7.45,109.48,11.57,196.78-3.99,306.84-1.44,99.43,2.3,201.82,24.44,314.1,39.32,6.64.88,7.8,4.01,8.61,8.29,7.7-1,7.85-2.68,12.12-6.25,8.12-6.76-29.7-17.59-29.7-17.59Z"/>
    <path class="cls-15" d="M733.1,628.34c-38.12-9.54-77.84-12.64-116.98-9.13-1.93.17-3.87-.86-4.56-2.68-.91-2.38-4.49-4.87-7.56-5.42-16.44-2.91-32.98-5.21-49.59-6.88-40.41-4.08-81.32-4.47-121.27-12.43-34.9-6.95-67.46-2.14-102.68,1.27-2.17.21-3.87,1.97-3.97,4.15-.11,2.13-1.73,3.88-3.85,4.14l-27.84,3.42c-4.48.55-5.34,6.74-1.15,8.42,4.55,1.83,9.86,2.54,14.78,3,79.77,7.51,159.7,13.48,239.7,17.89,2.05.11,3.62,1.67,4.04,3.67.97,4.62,8.63,7.75,14.47,8.04,44.49,2.19,89.07,2.29,133.57.29,12.27-.55,26.28-2.3,34.79-10.26,2.56-2.4,1.51-6.67-1.9-7.52Z"/>
    <path class="cls-15" d="M1024.13,607.48c-43.57-13.9-94.94-10.39-140.81-9.97-4.56.04-9.38.18-13.22,2.32-1.72.95-3.11,2.46-3.88,4.11-1.32,2.83.62,6.11,3.71,6.59.11.02.22.03.32.05,5.43.85,5.43,8.64,0,9.5-12.55,1.98-25.02,4.36-37.36,7.15-5.06,1.14-4.94,8.35.14,9.4,11.12,2.31,23.06,2.44,34.6,2.47,35.24.1,70.49.19,105.73.29,11.05.03,23.4-.39,31.13-7.29,1.89-1.69,3.43-3.73,5.63-5.11,3.98-2.51,9.29-2.43,14.1-3.3,4.81-.87,10.09-3.75,9.91-8.04-.18-4.23-5.43-6.71-9.99-8.17Z"/>
  </g>
  <g id="Layer_3" data-name="Layer 3">
    <ellipse class="cls-31" cx="1682.53" cy="617.09" rx="149.09" ry="28.24"/>
    <path class="cls-12" d="M1669.66,596.01c3.55-6.27,3.55-4.52,4.14-7.7-5.91-1.9-9.46.1-9.46.1,0,0-7.1-3.08-8.87,0-1.77,3.08-8.28,7.11-8.28,7.11h-34.3l-2.37,3.35,4.14,2.77h35.48l5.03,3.96h6.89c3.32-3.23,6-6.77,7.6-9.59Z"/>
    <path class="cls-22" d="M1686.13,595.8c4-5.03,6.43-11.25,8.8-17.36,8.07-20.81,16.3-42.52,15.11-65.03,5.93,28.92-4.6,59.53-2.5,89.05,2.83-2.2,5.29-4.94,7.23-8.05,3.75,11.68,14.67,18.82,25.35,23.42,15.82,6.81,32.92,10.15,49.96,9.86l2.59-1.93v-4.44l-7.69-1.9h-23.06c-1.77,0-10.11-5.25-10.11-5.25l-7.04-4.73-4.88-7.15s1.04-7.62,0-11.42c-1.04-3.81-2.22-7.59-2.81-13-.59-5.41-5.13-16.2-4.63-19.37.49-3.17,0-16.5,0-16.5v-53.31h-33.21s-3.17,9.89-2.32,20.94c.66,8.56-1.93,13.96,0,15.87,2.15,2.12,0,10.79,0,10.79,0,0-1.82,5.71-3.6,13.96-1.77,8.25-7.44,16.04-7.44,16.04,0,0-2.02,4.9-3.2,8.71-1.18,3.81-8.28,10.16-8.87,13.33-.59,3.17-.59,1.43-4.14,7.7-1.6,2.82-4.28,6.36-7.6,9.59-4.06,3.94-9.08,7.42-14.28,8.56-9.46,2.08-14.78-2.71-17.15,0-2.37,2.71-7.69,5.89-7.69,5.89h-17.74l-8.28,3.81-2.13,1.14-3.78,2.03,8.28,3.17s5.91,1.9,7.69,0c1.77-1.9,11.53-3.17,11.53-3.17,0,0,13.31,0,16.26-.63.88-.19,2.96-.32,5.52-.43,9.47-5.58,18.95-11.16,28.42-16.74,6.3-3.71,12.75-7.55,17.42-13.42Z"/>
    <path class="cls-12" d="M1740.12,617.83c-10.68-4.6-21.59-11.74-25.35-23.42-1.94,3.12-4.4,5.86-7.23,8.05-2.1-29.53,8.43-60.13,2.5-89.05,1.18,22.51-7.04,44.22-15.11,65.03-2.37,6.11-4.8,12.32-8.8,17.36-4.66,5.87-11.11,9.71-17.42,13.42-9.47,5.58-18.95,11.16-28.42,16.74,6.03-.26,14.7-.39,16.36-.84,2.37-.63,15.38-2.54,15.38-2.54l9.46-1.9h9l15.53,2.54,16.28.63,10.15,2.54,12.32,4.65h40.8l4.51-3.36c-17.04.29-34.14-3.05-49.96-9.86Z"/>
    <path class="cls-10" d="M1823.88,521.91l38.19,6.52-17.36-15.02h8.68l-20.58-8.94h10.61l-12.54-4.13h4.5l-6.91-4.87,8.52,1.03s-9.95-2.47-16.72-7.83l-6.77-5.36,13.65,5.36s-22.71-13.81-26.53-16.21c-3.82-2.4-7.96-7.21-7.96-7.21l-6.16.35c-.14-.25-.29-.51-.5-.76-.87-1.03-2.77-2.96-4.02-3.47-2.29,1.28-3.46,2.9-4.19,4.72l-88.35,4.98c-.8-2.87-.76-6.62-2.06-8.82-4.61.21-8.3,1.88-12.23,3.81-1.98,1.21-4.08,2.23-6.3,3.08-.77-.1-1.36-.43-1.78-.97-2.62-.76-3.87-.53-6.89-.03-5.35.9-10.24,2.8-15.47,3.88.07-3.42,1.99-8.19-3.61-7.26-.41.07-.79.16-1.14.27-3.79,1.17-4.46,4.47-.51,4.06-.43,1.35-.72,2.83-1.71,3.83-.46.47-1.65.93-2.22,1.37-1.21.95-2,1.99-2.87,2.98-4.35,1.76-10.36,3.91-17.5,5.74l-15.11,3.88h10.5s-5.68,5.49-17.9,9.27l-12.22,3.78h10.6l-14.46,17.51,6.75-4.03-4.18,9.87,19.29-7.21-5.14,9.96,15.15-7.9-6.79,12.02,8.89-6.87-6.64,32.36s25.4-19.31,33.12-25.49l7.72-6.18-5.79,10.3,9-6.87-5.77,14.42,15.41-15.11v7.9l5.14-6.52,3.22,18.54,13.5-18.2v6.18l4.18-7.55,3.54,12.25,4.68-12.94,7.54,33.49,1.93-20.55,1.61,3.89,4.82-18.89,1.26,8.06,4.37-8.06,16.24,18.89v-12.02l36.98,18.54-15.11-15.11,23.15,7.21-8.36-5.84,30.55,11.68-4.14-8.35,23.75,5.95-6.43-5.95,28.62,6.98-3.22-6.98h7.07l-18.58-17.4Z"/>
    <path class="cls-1" d="M1828.47,483c-.87,0-1.76.03-2.65.05.81.03,1.67-.05,2.65-.05Z"/>
    <path class="cls-1" d="M1801.99,438.9c-.46,0-.91,0-1.37,0,.43.07.88.08,1.37,0Z"/>
    <path class="cls-18" d="M1835.39,485.51s-9.65-6.52-11.58-8.24l-1.93-1.72,6.59,1.72-7.97-7.49c-.25-.46-.71-.83-1.21-1.14h0s7.86,1.76,7.86,1.76l-15.55-10.99h9s-16.8-13.05-19.97-14.77c-3.18-1.72,9.36.69,9.36.69l-9.36-6.43,6.79,1.62-9.93-3.43s0,0,0,0l9.93-1.37-24.11-13.39-9.97-10.3-4.65.3c-.22-.22-.45-.43-.69-.63-.02.23-.06.45-.13.68l-.93.06c-1.09-.95-1.89-2.22-3-3.17-3.75-3.22-4.25,1.06-6.44,3.78l-6.59.43c-.19-.03-.39-.06-.59-.07-.5-.03-.98.05-1.43.2l-47.32,3.05c-.23-.19-.48-.38-.78-.58-1.22-.8-2.15-.68-3.67-.64-4.55.11-9.11.02-13.67.02-10.77,0-15.32,0-25.21-1.88-1.54.53-2.87,2.5-3.87,3.79-3.13,4-11.5,8.77-14.43,12.94-1.19,1.69-2.4,3.36-3.59,5.03-4.1,3.11-7.66,5.7-9.3,6.57l-5.14,2.75,6.37,1.48s-3.8,3.33-10.55,7.11l-6.75,3.78h9.97s-10.93,6.87-15.11,9.96l-4.18,3.09h9.97l-9.97,11.33s13.83-3.43,19.93-6.52l6.11-3.09-4.18,6.87,3.54-2.06s-.32,6.52-1.29,8.24c-.96,1.72-6.43,11.68-6.43,11.68,0,0,11.47-5.49,15.43-9.96,3.96-4.46,5.54-3.47,5.54-3.47l-2.97,5.6,6.11-4.19.32,4.19,4.18-2.82,10.29-2.85v5.66l4.18-5.66-2.25,14.87,9.01-13.44.96-1.43,2.25,5.66,1.61-7.62,4.82,19.3,8.04-17.27,1.93,5.6,1.61-3.85,6.65,15.52,4.6-11.67,1.61,2.33,1.61-2.33,3.54,4.05,1.29-4.05s14.47,17.1,14.79,15.73c.32-1.37,2.57-10.22,2.57-10.22l2.89,1.63,1.29-1.63,6.11,3.01v-3.01l17.68,3.35-2.25-6.18,16.08,6.18-1.29-3.35,22.53,3.01-6.13-8.52h8.72l-6.47-3.5,26.53,3.25-12.1-6.69s30.26,3.78,32.51,3.78h2.25Z"/>
    <path class="cls-18" d="M1782.98,409.96h7.1l-5.81-3.97h16.36l-7.96-4.96h4.14l-21.86-12.36,8.68,1.03-26.04-18.2-6.55.12c-.23-.18-.47-.36-.7-.56-.97-.83-1.94-2.38-3.45-2.39-1.28-.01-2.12,1.33-2.73,3.08l-19.35.37c-1.14-.86-1.82-.66-2.47.05l-55.75,1.05-22.19,9.27,14.33,1.06c-1.27,1.7-2.55,3.41-3.83,5.11-5.09,3.29-11.64,7.52-17.04,10.21l-9.85,4.92,12.29-1.72s-11.33,11.68-12.29,13.39l-.96,1.72h11.25s-6.43,8.93-8.36,13.05l-1.93,4.12,17.04-6.52-3.22,15.49,3.22-4.35-1.93,12.19s16.72-12.68,19.93-15.43l3.22-2.75-.89,2.37-2.97,7.96,5.47-4.4v6.09l2.89-6.03v14.61l11.25-14.61,1.61,4.35,2.25-2.09v4.12l5.96-10.99,3.04,16.8v-12.24l5.47,20.51,8.68-20.51,9.32,6.77v-2.37l11.25,9.58v-13.93l15.43,10.49-2.67-6.15,11.03,6.15-9-18.2,9,5.49-1.61-4.46,21.54,8.93-9.32-10.99,13.18,3.43-4.22-5.84,7.43,1.37-4.18-3.43,26.76,4.12v-2.22l4.42-.87-24.44-16.83Z"/>
    <path class="cls-8" d="M1795.52,391.07c-1.29-.34-11.26-6.31-11.26-6.31l8.36-1.59-6.45-1.72c-1.76-.47-4.32-1.45-7.12-2.62-.19-.17-.38-.33-.54-.43-.72-.45-1.75-.59-2.53-1.07-1.8-1.08-3.46-2.5-4.98-4.21-.4-.45-.85-1.11-1.31-1.5,6.27.05,16.49-.14,16.49-.14,0,0-3.2-2.06-12.09-6.64-.49-.36-1.01-.62-1.53-.84-2.76-1.59-5.7-3.71-8.44-5.86,2.01.16,5.59.65,7.41-.1-.5-1.63-2.72-1.87-3.98-2.65-1.66-1.02-2.85-2.19-4.57-3.09-2.7-1.42-4.77-2.54-7.08-4.53,1.37.11,6.35.82,7.35-.31-1.14-1-2.37-1.07-3.71-1.59-2.46-.97-4.27-3.01-6.5-4.4-1.68-1.05-3.5-1.55-5.19-2.54-1.31-.78-2.1-1.95-3.36-2.84-1.48-1.04-3.4-1.46-4.86-2.48-1.93-1.36-2.26-3.32-4.92-2.63-.54,2.42.1,5.07.06,7.57l-2.88-.13c-1.06-1.74-1.84-3.88-3.41-4.8-2.35-1.38-3.06,1.95-3.81,4.47l-10.37-.48c-.08-1.38-.2-2.65-.72-3.2-1.89-2.01-3.85,1.62-5.08,2.93l-4.66-.22c-.2-.56-.53-1.05-1.02-1.44-1.04-.04-1.86.38-2.47,1.27l-3.92-.18c-1.36-2.17-2.01-4.36-2.33-6.89-2.39-1.64-5.45,2.93-7.12,4.16-1.06.78-2.28,1.41-3.39,2.14l-3.24-.15c-.44-.61-1.09-.64-3.75-5.06.24,2.14-2.22,3.24-3.52,4.41-.11.1-.21.2-.31.3l-5.55-.26-6.43,7.55c-6.43,7.55-18.65,11.68-18.65,11.68l11.25-1.72-3.22,3.43c-3.22,3.43-20.26,16.48-20.26,16.48h14.79l-11.25,6.52h10.29l-7.31,8.24,11.49,1.03-12.86,10.99,16.65-4.76-3.92,5.01,5.64-.92c-.17.73-.39,1.44-.71,2.12.87-1.35,2.66-1.85,4.12-2.68l7.15-1.17-2.89,7.23,11.58-5.52-2.57,5.52,10.61-6.2-2.89,9.82,14-9.48,4.32,11.33,9.66-13.03,4.49,13.03,2.72-19.23,2.15,9.62,4.76-4.46,3.55,6.87,1.56-9.38c.61.8,1.23,1.58,1.79,2.35.6.83,1.29,1.51,2.02,2.12l8.77,10.28,1.28-12.68.03.03c.17.16.34.31.51.47l10.89,10.06v-11.13l4.97,3.77-1.93-6.18,15.11,6.18-9-14.1h0s10.78,4.46,17.68,6.89c6.91,2.42,19.61,0,19.61,0l-1.29-.34Z"/>
    <path class="cls-35" d="M1768.19,340.25l-17.36-7.9h7.72l-14.47-2.8h16.4l-25.72-14.03,13.83,2.4-20.58-10.3,17.68,2.4-17.36-11.68,10.29.34s-16.08-8.24-19.29-11.33c-3.22-3.09-12.86-23.01-12.86-23.01,0,0-13.5,18.2-17.68,22.32-4.18,4.12-10.29,9.27-10.29,9.27l7.07-1.37-7.72,5.84h7.25c-3.6,2.43-7.81,5.11-11.75,7.21l-9.65,5.15h9l-5.92,4.27-5.02,3.62h9.32l-4.68,3.59-6.9,5.29,5.79-2.01s-6.75,10.3-11.57,13.05l-4.82,2.75,21.22-7.76-5.46,10.51,8.68-7.9-1.77,13.05,5.31-9.62,1.61,9.62,3.22-6.87,5.29-10.31-.47,9.28,2.25-6.87,1.61,20.6,3.86-11.33v16.14l4.5-13.05,4.82,17.86,1.93-12.71,9.69,9.96v-9.62l12.49,6.18v-14.08l12.54,9.62-3.22-7.9,10.61,3.09-10.29-8.59,2.29.69,8,2.4,11.93.14-16.43-7.35,25.08,1.72Z"/>
    <path class="cls-2" d="M1707.1,246.5s-9.94,18.89-15.26,23.35c-5.32,4.46-18.18,12.71-18.18,12.71l6.11-1.37-6.11,7.9,10.29-6.18-6.75,10.65,8.42-3.88-7.13,12.81,11.9-9.27-1.29,9.27,5.14-6.52.64,7.9,4.82-10.3s3.54,12.02,5.79,15.11,1.61,4.46,1.61,4.46c0,0-.79-10.99.09-14.77l.88-3.78.48,6.18,3.05-6.18,7.72,14.08v-12.36l6.11,1.72-2.89-4.81,15.43,1.03-11.25-8.93,8.36-.34s-15.75-12.36-17.84-15.11l-2.09-2.75,6.75,4.46s-14.15-13.39-13.34-15.8-1.45-9.27-1.45-9.27Z"/>
  </g>
  <g id="Layer_4" data-name="Layer 4">
    <ellipse class="cls-31" cx="1288.73" cy="578.65" rx="86.88" ry="22.54"/>
    <path class="cls-31" d="M1178.1,667.65c0,11.77-55.77,24.35-82.42,24.35s-48.27-9.54-48.27-21.32,21.61-21.31,48.27-21.31,82.42,6.51,82.42,18.28Z"/>
    <path class="cls-32" d="M1977.11,623.28c-3.73-.13-6.38-6.48-8.67-8.78-5.66-5.7-13.45-7.72-21.23-9.11-9.85-1.76-19.78-3.1-29.65-4.79-6-1.02-11.88-2.76-17.87-3.75-11.18-1.84-20.78,6.05-29.58,11.99-2.09,1.41-4.05,3.69-6.3,4.65-2.43,1.03-2.65.22-5.01-.24-8.12-1.56-17.37-.36-25.63-.35-2.54,0-6.96-.83-8.76.81-1.14,1.05-.25,2.42-1.95,3.42-1.57.92-6.29.09-7.78.11-6.25.09-10.49,1.76-14.77,5.75-2.5,2.32-4.25,1.8-7.81,1.78-7.2-.03-14.84-1.13-21.4,2.54-1.59.89-3.44,2.11-4.68,3.48-3.4,3.74.97,2.81-8.05,2.97-10.81.19-23.23-1.11-33.68,2.86-4.01,1.52-6.38,4.8-9.84,7.02-.48-2.11.12-3.49-1.53-5.16-2.03-2.07-7.1-3.26-9.95-3.36-4.25-.15-8.09-.51-12.31-1.19-5.05-.81-9.24-3.36-14.39-3.27-14.54.25-32.77,11.1-35.06,26.65-2.75.6-5.95.03-8.81.18-7.15.38-11.38,1.85-16.15,6.81-1.19,1.24-2.58,3.05-4.29,3.6-.98.32-2.82-.12-3.87.03-2.73.4-4.05,1.98-6.34,2.97-3.56,1.55-5.72,1.42-9.36.68-6.7-1.35-13.7-.77-20.54-.75-4.76.01-8.61-.67-12.42,2.52-2.58,2.17-5.65,5.75-5.75,9.38-.09,3.19,1.58,2.9,4.34,3.01,7.25.29,14.65-.07,21.91-.07h313.49c3.84,0,7.68,0,11.52.03,5.8.07,11.36-1.42,17.13-1.6,6.45-.2,13.86,1.38,20.17.14,7.45-1.46,10.54-10.93,12.91-17.25,2.69-7.17,4.24-13.71,8.35-20.14,1.5-2.35,1.94-4.93,2.79-7.56,1.81-5.58,6.86-9.66,10.8-16.01Z"/>
    <path class="cls-24" d="M379.11,680.46c-.1-4.49-3.1-12.09-7.47-12.75-5.3-.8-12.54-.15-17.92.07-2.13.09-3.14,0-4.76,1.08-1,.66-1.43,1.88-2.58,2.62-1.72-.74-3.14-5.19-5.08-6.67-3.78-2.87-9.58-1.43-14.3-1.43-5.04,0-10.55-.56-15.56-.08-3.14.3-5.88,1.74-9.09,1.7,2.83-.41,3.1-5.44,2.59-7.6-.65-2.73-3.71-5.79-5.96-7.47-8.44-6.26-18.45-4.29-28.61-4.39-3.75-.04-6.18,1.06-9.74,1.57-4.29.61-3.83-2.12-7.32-3.19-2.37-.73-6.79.15-9.3.15-3.72,0-7.51-.25-11.22-.1-5.75.23-4.81,4.98-9.67,6.22-.96.25-2.46.14-3.83.01.56,1.33,1.03,2.67,1.09,4.04,3.27.84,7.99-.78,10.03,3.13,1.83,3.49-.16,6.94,5.8,5.74,1.76-.35,2.74-1.02,4.51-1.25,2.23-.29,4.76.04,7,.03,3.56,0,7.63-.52,11.17-.03,2.64.36,4.56,1.45,7.36,1.55,2.77.1,6.31-.82,8.97-.14,2.13.54,4.84,3.86,5.62,6.04,1.31,3.66-.78,4.32,3.95,4.47,5.41.18,10.94-1.47,14.85,2.92,2.59,2.91,3.07,3.1,7.31,3.02,7.18-.13,14.37.05,21.55-.02,4.87-.05,7.39.03,11.26,2.91,3.4,2.54,3.46,5.06,4.46,8.98h15.97c2.95,0,5.94.13,8.89.03,2.94-.09,3.21-.86,5.49-1.93,1.84-.86,3.84-.67,4.65-2.45.6-1.34-.06-5.36-.09-6.79Z"/>
    <path class="cls-14" d="M181.57,684.24c-1.07-2.77-1.85-6.03-3.3-8.69-.74-1.36-3.12-5.25-4.42-6.01-3.25-1.91-11.83-.22-15.7-.22-4.82,0-9.68-.18-14.5-.01-4.7.17-7.15,3.99-11.81,4.52-1.92.22-5.63.55-7.37-.11-2.3-.87-3.02-3.23-5.31-4.43-3.9-2.04-7.42-2.16-11.7-3.16-.18-2.95-1.33-8.91-4.53-10.33-2.57-1.14-9.04.16-11.99.15-1.8,0-4.11-.42-5.86-.11-3.8.67-3.46,2.51-5.95,4.67-3.18,2.76-7.95.97-11.83,1.7-4.77.9-5.93,1.92-7.88-2.85-.77-1.88-.83-4.2-2.48-5.38-2.65-1.9-3.46.21-4.95-3-1.71-3.69-.45-6.89-5.32-8.24-2.91-.81-6.72-.15-9.7-.16-6.71,0-17.21-2.3-18.87,7.01.38-6.45-1.65-7.95-8.05-10.28-4.69-1.7-3.23-3.92-6.32-7.82-1.41-1.78-1.04-2.35-3.73-2.42v62.51h185.74c-.16-.57-.39-1.15-.76-1.82-1.11-2.03-2.59-3.39-3.41-5.54Z"/>
    <path class="cls-32" d="M339.74,682.62c-3.87-2.89-6.39-2.97-11.26-2.91-7.18.08-14.37-.1-21.55.02-4.24.07-4.72-.12-7.31-3.02-3.91-4.39-9.43-2.74-14.85-2.92-4.73-.16-2.64-.81-3.95-4.47-.78-2.18-3.49-5.5-5.62-6.04-2.66-.68-6.2.24-8.97.14-2.8-.1-4.72-1.19-7.36-1.55-3.54-.48-7.61.03-11.17.03-2.24,0-4.77-.33-7-.03-1.77.23-2.75.9-4.51,1.25-5.96,1.2-3.97-2.25-5.8-5.74-2.04-3.91-6.76-2.28-10.03-3.13-.06-1.37-.53-2.71-1.09-4.04-.76-.07-1.49-.14-2.06-.17-3.3-.12-2.59-1.29-4.8-2.75-1.84-1.21-5.71-.22-7.87-.25-1.61-.02-4.86-.52-6.37.25-.76.39-1.71,2.33-2.12,2.5-1.92.78-5.64-1.3-7.53-1.67-4.59-.92-9.74-1.69-14.44-1.12-1.3.16-2.43.92-3.78.94-1.62.02-6.22-1.98-6.98-2.1-5.38-.81-12.84-1.5-18.24-.39-4.26.88-1.86,2.66-4.48,5.83-.7.85-4.65,3.26-5.88,3.19-2.72-.15-2.35-3.59-3.26-6-.79-2.07-.33-2.1-2.12-3.9-3.23-3.24-8.78-4.22-13.04-5.57-3.55-1.13-8.38-1.85-11.05-4.54-.67-.67-1.01-1.84-1.68-2.36-4.99-3.88-9.86-4.42-16.38-4.4-6.19.03-11.88.21-17.91,1.48-3.64.76-2.07,1.81-4.63,3.48-2.46,1.6-3.27-.84-5.97-1.68-4.06-1.26-4.31.56-4.84-3.99-.45-3.8-3.52-10.25-7.74-11.32-3.11-.79-10.07,2.15-11.66-1.12-1.17-2.42,1.29-6.72.22-9.19-1.44-3.3-2.03.11-3.45-.12-3.12-.51-1.34-2.1-2.78-3.86-1.94-2.38-5.45-2.06-7.37-3.63-1.84-1.51-.8-2.72-3.25-3.95-1.66-.83-7.07-.28-8.34-.25-3.22.06-4.83.46-7.26-1.42-.77-.59-1.49-1.1-2.2-1.54v38.5c2.69.06,2.32.64,3.73,2.42,3.09,3.9,1.63,6.11,6.32,7.82,6.39,2.32,8.43,3.83,8.05,10.28,1.66-9.31,12.16-7.02,18.87-7.01,2.98,0,6.79-.65,9.7.16,4.87,1.36,3.61,4.55,5.32,8.24,1.49,3.21,2.3,1.09,4.95,3,1.65,1.19,1.72,3.5,2.48,5.38,1.95,4.77,3.11,3.74,7.88,2.85,3.88-.73,8.65,1.06,11.83-1.7,2.49-2.16,2.15-4,5.95-4.67,1.75-.31,4.06.1,5.86.11,2.94,0,9.42-1.28,11.99-.15,3.19,1.41,4.34,7.37,4.53,10.33,4.27,1,7.8,1.12,11.7,3.16,2.29,1.2,3.02,3.56,5.31,4.43,1.74.66,5.45.33,7.37.11,4.66-.53,7.11-4.35,11.81-4.52,4.82-.17,9.68.01,14.5.01,3.88,0,12.45-1.69,15.7.22,1.3.76,3.68,4.65,4.42,6.01,1.45,2.66,2.24,5.91,3.3,8.69.82,2.14,2.3,3.51,3.41,5.54.37.67.6,1.25.76,1.82h158.46c-1-3.92-1.05-6.44-4.46-8.98Z"/>
    <path class="cls-14" d="M2000,566.93c-8.37-.71-16.62-1.39-25.11-1.27-6.96.1-13.19,3.95-18.05,8.99-1.01,1.05-1.8,2.88-2.96,3.63-1.56,1-2.51.47-4.16.69-4.04.54-7.48,2.45-10.97,4.49-2.12,1.24-8.18,4.27-10.23,6.41-2.31,2.42-1.36,7.3-3.53,9.21-2.47,2.17-9.19.81-12.34.79-3.2-.02-5.65-.33-8.4,1.6-2.31,1.62-5.31,4.95-7.07,7.15-2.74,3.42-1.2,9.73-4.8,11.8-1.71.98-4.34.71-6.31,1.28-2.58.74-5.28,1.87-7.5,3.38-4.89,3.32-8.42,6.96-11.95,11.71-2.48,3.34-2.66,3.52-5.93,4.56-2.07-.78-4.14-1.56-6.22-2.32-3.21-1.69-6.56-2.51-10.05-2.46-3.76-.42-7.6-1.27-11.36-1.51-3.8-.24-9.99-.97-13.69.22-.77.25-1.53.7-2.29,1.25-4.44-.62-10.27.45-14.48.45-1.95,0-3.9.02-5.85,0-6.51-.03-13.64.12-18.87,4.82-1.98,1.78-2.25,3.5-5.06,4.19-2.04.5-4.65-.32-6.79-.05-3.88.5-4.98,2.69-8.08,4.19-2.25,1.09-4.84.42-7.39,1.87-4.01,2.27-5.09,5.24-7.41,8.87-2.21,3.45-2.18,2.49-5.52,2.79-4.46.4-8.03.64-12.16,2.66-.97.48-1.61.94-2.12,1.42-.77-.22-1.48-.42-2.11-.56-5.05-1.11-10.09-1.02-15.26-.88-4.74.13-4.04,1.31-6.56,5.13-1.94,2.94-6.06,3.81-6.65,8.11,2.18.63,4.31-.17,6.49.36.23,4.48-4.6,3.25-5.34,6.54,2.89,2.61,16.77.67,19.48.67h185.69c5.55,1.1,10.95,2.62,16.77,3.14,8.3.74,16.65.18,24.98.2,7.63.02,15.35-.49,22.95.33,5.61.61,10.93,1.23,16.62,1.19,6.54-.05,13.08-.05,19.62-.05v-125.01Z"/>
    <polygon class="cls-21" points="1302.05 537.32 1312.45 547.29 1326.99 534.33 1316.9 522.47 1257.5 510.59 1250.48 514.8 1274.17 534.69 1302.05 537.32"/>
    <path class="cls-9" d="M1327.3,534.69l-.31-.36-14.55,12.96-10.4-9.97-27.88-2.63-23.69-19.89-22.68,13.61v16.34l7.43,19.56,5.94,19.68h17.82l32.88-8.01h16.13l19.31-11.67c2.97-4.71,0-29.62,0-29.62Z"/>
    <path class="cls-25" d="M1291.86,575.98l-32.88,8.01h-17.82l-5.94-19.68-7.43-19.56v-16.34l-6.73,14.85-9.61,25.31,23.02,23.96,49.75-.25,43.07-8.3s-2.97-14.97,0-19.68l-19.31,11.67h-16.13Z"/>
    <path class="cls-25" d="M1071.17,678.23c-7.43,1.49-11.88-10.58-11.88-10.58l-8.61-2.76-3.27,2.76,11.88,18.19h40.24l34.01-18.19,10.4-10.01-44.41,20.59s-20.94-1.49-28.36,0Z"/>
    <path class="cls-9" d="M1114.15,642.42v5.16l-29.61,10.06h-25.3s-8.56,7.24-8.56,7.24l8.61,2.76s4.46,12.07,11.88,10.58c7.43-1.49,28.36,0,28.36,0l44.41-20.59-8.91-13.32-20.88-1.9Z"/>
    <polygon class="cls-21" points="1084.54 657.64 1114.15 647.58 1114.15 642.42 1099.54 641.09 1071.17 647.55 1059.24 657.64 1059.24 657.64 1084.54 657.64"/>
  </g>
</svg>